<svg width="51" height="51" viewBox="0 0 51 51" fill="none" xmlns="http://www.w3.org/2000/svg">
<g id="bnb" clipPath="url(#clip0_284_2113)">
<g id="Group">
<path id="Vector" d="M25.5 51C39.5833 51 51 39.5833 51 25.5C51 11.4167 39.5833 0 25.5 0C11.4167 0 0 11.4167 0 25.5C0 39.5833 11.4167 51 25.5 51Z" fill="#F3BA2F"/>
<path id="Vector_2" d="M19.3099 22.9564L25.5 16.7663L31.6933 22.9596L35.2952 19.3577L25.5 9.5625L15.708 19.3545L19.3099 22.9564ZM9.5625 25.5L13.1644 21.8981L16.7663 25.5L13.1644 29.1019L9.5625 25.5ZM19.3099 28.0436L25.5 34.2337L31.6933 28.0404L35.2952 31.6407L25.5 41.4375L15.708 31.6455L15.7032 31.6407L19.3099 28.0436ZM34.2337 25.5L37.8356 21.8981L41.4375 25.5L37.8356 29.1019L34.2337 25.5ZM29.1529 25.4968H29.1561V25.5L25.5 29.1561L21.8487 25.5064L21.8423 25.5L21.8487 25.4952L22.4878 24.8545L22.7986 24.5437L25.5 21.8439L29.1545 25.4984L29.1529 25.4968Z" fill="white"/>
</g>
</g>
<defs>
<clipPath id="clip0_284_2113">
<rect width="51" height="51" fill="white"/>
</clipPath>
</defs>
</svg>
