<svg width="51" height="51" viewBox="0 0 51 51" fill="none" xmlns="http://www.w3.org/2000/svg">
<g id="btc" clipPath="url(#clip0_284_2108)">
<path id="Vector" d="M51 25.5C51 30.5434 49.5045 35.4736 46.7025 39.667C43.9005 43.8605 39.918 47.1289 35.2584 49.0589C30.5989 50.989 25.4717 51.4939 20.5252 50.51C15.5787 49.5261 11.035 47.0975 7.46879 43.5312C3.90255 39.965 1.47391 35.4213 0.489987 30.4748C-0.493936 25.5283 0.0110486 20.4011 1.94108 15.7416C3.87112 11.0821 7.13952 7.0995 11.333 4.29752C15.5264 1.49555 20.4566 0 25.5 0C32.263 0 38.7491 2.6866 43.5312 7.46878C48.3134 12.251 51 18.737 51 25.5Z" fill="#F7931A"/>
<path id="Vector_2" fill-rule="evenodd" clip-rule="evenodd" d="M18.1235 11.6442L23.9839 13.2136L25.2937 8.33154L28.2239 9.12668L26.9651 13.8071L29.3551 14.4492L30.6162 9.71782L33.5974 10.5153L32.3131 15.2722C32.3131 15.2722 37.1813 16.3501 38.3265 20.3096C39.4717 24.269 35.8089 26.3484 34.6777 26.4273C34.6777 26.4273 38.9431 28.7663 37.478 33.3679C36.0129 37.9695 31.5157 38.7924 26.7843 37.7377L25.5 42.6708L22.5188 41.8733L23.8286 37.0167L21.464 36.3723L20.1543 41.2636L17.1963 40.4685L18.5084 35.6003L12.4927 33.9776L14.0088 30.6116C14.0088 30.6116 15.7057 31.0752 16.3478 31.2282C16.9899 31.3812 17.4026 30.7136 17.5834 30.0459C17.7642 29.3783 20.4881 18.3136 20.7454 17.4026C21.0027 16.4915 20.8984 15.7799 19.8181 15.4994C18.7379 15.2189 17.2681 14.7807 17.2681 14.7807L18.1235 11.6442ZM24.0349 26.2975L22.4122 32.749C22.4122 32.749 30.4586 35.6536 31.4879 31.5667C32.5171 27.4797 24.0349 26.2975 24.0349 26.2975ZM24.7814 23.2375L26.3739 17.3261C26.3739 17.3261 33.2636 18.5594 32.4151 21.8489C31.5667 25.1384 27.5052 23.8773 24.7814 23.2375Z" fill="white"/>
</g>
<defs>
<clipPath id="clip0_284_2108">
<rect width="51" height="51" fill="white"/>
</clipPath>
</defs>
</svg>
