<svg width="51" height="51" viewBox="0 0 51 51" fill="none" xmlns="http://www.w3.org/2000/svg">
<g id="usdt" clipPath="url(#clip0_284_2102)">
<g id="Group">
<path id="Vector" d="M25.5 51C39.5833 51 51 39.5833 51 25.5C51 11.4167 39.5833 0 25.5 0C11.4167 0 0 11.4167 0 25.5C0 39.5833 11.4167 51 25.5 51Z" fill="#26A17B"/>
<path id="Vector_2" fill-rule="evenodd" clip-rule="evenodd" d="M28.5631 27.7047V27.7015C28.3878 27.7142 27.4841 27.7684 25.468 27.7684C23.8583 27.7684 22.7252 27.7206 22.3267 27.7015V27.7063C16.1302 27.4337 11.5052 26.3548 11.5052 25.0638C11.5052 23.7745 16.1302 22.6955 22.3267 22.4182V26.6321C22.7316 26.6608 23.8918 26.7293 25.4951 26.7293C27.4188 26.7293 28.383 26.6496 28.5631 26.6337V22.4214C34.7468 22.6971 39.3607 23.7761 39.3607 25.0638C39.3607 26.3548 34.7468 27.4305 28.5631 27.7047ZM28.5631 21.9831V18.2123H37.1916V12.462H13.6982V18.2123H22.3267V21.9815C15.3142 22.3034 10.0405 23.6932 10.0405 25.3571C10.0405 27.0209 15.3142 28.4091 22.3267 28.7326V40.8164H28.5631V28.7294C35.5644 28.4075 40.8254 27.0193 40.8254 25.3571C40.8254 23.6948 35.5644 22.3066 28.5631 21.9831Z" fill="white"/>
</g>
</g>
<defs>
<clipPath id="clip0_284_2102">
<rect width="51" height="51" fill="white"/>
</clipPath>
</defs>
</svg>
