<svg width="78" height="78" viewBox="0 0 78 78" fill="none" xmlns="http://www.w3.org/2000/svg">
<g id="grid-lock">
<g id="vuesax/bulk/grid-lock">
<g id="grid-lock_2">
<path id="Vector" d="M69.9722 56.2575V55.7376C69.9722 49.4651 66.7872 46.3125 60.5472 46.3125C54.3072 46.3125 51.1222 49.4976 51.1222 55.7376V56.2575C47.7097 57.1025 46.3447 59.4424 46.3447 64.1224V66.5274C46.3447 72.5399 48.5872 74.75 54.5672 74.75H66.5272C72.5397 74.75 74.7497 72.5074 74.7497 66.5274V64.1224C74.7497 59.4749 73.3847 57.1025 69.9722 56.2575ZM60.5147 50.7975C64.7072 50.7975 65.4547 52.3901 65.4547 55.7376V55.9H55.5747V55.7376C55.5747 52.3901 56.3222 50.7975 60.5147 50.7975Z" fill="#AA27F3"/>
<g id="Group">
<path id="Vector_2" d="M27.2675 7.05244V28.015H6.27246V25.805C6.27246 14.0725 13.26 7.08498 24.9925 7.08498H27.2675V7.05244Z" fill="#8E54E9"/>
<path id="Vector_3" d="M70.752 25.7725C70.752 27.0075 69.7445 27.9825 68.542 27.9825H49.8545V7.01991H52.032C62.367 7.05241 70.752 15.4375 70.752 25.7725Z" fill="#8E54E9"/>
<path id="Vector_4" d="M27.2672 50.5375V69.2575C27.2672 70.4925 26.2597 71.4675 25.0572 71.4675H25.0247C14.6897 71.4675 6.30469 63.0824 6.30469 52.7474V50.5375H27.2672Z" fill="#8E54E9"/>
<path id="Vector_5" d="M27.2997 27.9825H6.30469V50.5375H27.2997V27.9825Z" fill="#E647CD"/>
<path id="Vector_6" d="M49.8225 27.9825V47.2875C49.8225 49.075 48.36 50.5375 46.5725 50.5375H27.2676V27.9825H49.8225Z" fill="#8E54E9"/>
<path id="Vector_7" d="M49.8225 7.05244H27.2676V28.015H49.8225V7.05244Z" fill="#E647CD"/>
</g>
</g>
</g>
</g>
</svg>
