<svg width="38" height="35" viewBox="0 0 38 35" fill="none" xmlns="http://www.w3.org/2000/svg">
<g clipPath="url(#clip0_246_1844)">
<path d="M9.89354 4.21533C9.77613 4.25825 9.65489 4.2896 9.53152 4.30894C9.65166 4.27719 9.77179 4.24544 9.89354 4.21533Z" fill="url(#paint0_linear_246_1844)"/>
<path d="M38 12.8145V32.2864C38 33.4398 37.1374 34.4482 35.9978 34.5238C35.9437 34.5238 35.8972 34.5276 35.8479 34.5276C34.7435 34.5276 33.8712 33.5718 33.8712 32.4561V13.155C33.8712 8.49683 30.2851 4.55253 25.6827 4.37078C25.5664 4.3653 25.45 4.36311 25.3321 4.36311C24.1297 4.36205 22.9402 4.61265 21.8382 5.09916C20.7363 5.58567 19.7457 6.29757 18.9288 7.19009C18.74 7.39538 18.5609 7.61052 18.3915 7.83333C17.5875 8.89373 17.0332 10.1257 16.7708 11.4355C16.6543 12.0172 16.5956 12.6091 16.5955 13.2026V28.5216C16.5964 28.9142 16.6938 29.3004 16.8791 29.6453C17.0644 29.9902 17.3317 30.283 17.6568 30.4973C17.9819 30.7116 18.3547 30.8406 18.7414 30.8728C19.1282 30.9049 19.5167 30.8391 19.872 30.6813C20.7016 30.309 21.2076 29.4462 21.2076 28.5276V12.567C21.2076 12.2386 21.1978 11.8838 21.2173 11.1525C21.2308 10.611 21.4613 10.085 21.8807 9.74828C22.2572 9.44611 22.7237 9.28172 23.2043 9.28186C24.0572 9.28186 24.7915 9.57857 25.1302 10.3099C25.2601 10.5886 25.3332 11.0112 25.3332 11.4355V28.5216C25.3328 29.5761 25.0781 30.6146 24.5911 31.547C24.1042 32.4794 23.3997 33.2774 22.5388 33.872C21.6778 34.4665 20.6865 34.8395 19.6508 34.9586C18.6151 35.0777 17.5663 34.9393 16.5955 34.5555C16.5127 34.5237 16.4331 34.4898 16.3509 34.4542C14.0825 33.4442 12.6668 31.1192 12.6668 28.613V12.8145C12.6661 12.3538 12.6903 11.8935 12.7394 11.4355C12.9889 9.06365 13.8923 6.81051 15.3465 4.933L15.4061 4.85526C16.3992 3.59033 17.6182 2.5252 18.9997 1.71515C20.9242 0.587798 23.1094 -0.00396349 25.3332 1.99789e-05C31.8673 1.99789e-05 37.2473 5.00635 37.927 11.4355C37.9762 11.8935 38.0006 12.3538 38 12.8145Z" fill="url(#paint1_linear_246_1844)"/>
<path d="M11.1295 2.25185C11.2204 3.30896 10.8162 3.85256 9.52178 4.31351C6.29229 5.46313 4.09908 8.33938 3.81444 11.9656C3.78472 12.3574 3.77587 12.7504 3.78793 13.1432V32.7919C3.78793 33.2822 3.5954 33.7524 3.25269 34.0991C2.90999 34.4458 2.44518 34.6406 1.96052 34.6406C1.90641 34.6406 1.8523 34.6406 1.79818 34.6345C0.772193 34.5557 -3.60517e-06 33.6415 -3.60517e-06 32.5997V12.7556C-0.000626998 12.2947 0.0237607 11.8342 0.0730494 11.376C0.602819 6.36148 3.9151 1.96006 8.56235 0.629786C9.7128 0.300775 11.0651 1.01518 11.1295 2.25185Z" fill="url(#paint2_linear_246_1844)"/>
</g>
<defs>
<linearGradient id="paint0_linear_246_1844" x1="-10.1289" y1="17.0407" x2="26.0543" y2="-5.7252" gradientUnits="userSpaceOnUse">
<stop stop-color="#4F57E6"/>
<stop offset="0.49" stop-color="#8057E9"/>
<stop offset="1" stop-color="#E717A8"/>
</linearGradient>
<linearGradient id="paint1_linear_246_1844" x1="1.26842" y1="35.1555" x2="37.4516" y2="12.3896" gradientUnits="userSpaceOnUse">
<stop stop-color="#4F57E6"/>
<stop offset="0.49" stop-color="#8057E9"/>
<stop offset="1" stop-color="#E717A8"/>
</linearGradient>
<linearGradient id="paint2_linear_246_1844" x1="-5.47032" y1="24.445" x2="30.7129" y2="1.67913" gradientUnits="userSpaceOnUse">
<stop stop-color="#4F57E6"/>
<stop offset="0.49" stop-color="#8057E9"/>
<stop offset="1" stop-color="#E717A8"/>
</linearGradient>
<clipPath id="clip0_246_1844">
<rect width="38" height="35" fill="white"/>
</clipPath>
</defs>
</svg>
