<svg width="456" height="298" viewBox="0 0 456 298" fill="none" xmlns="http://www.w3.org/2000/svg">
<g opacity="0.2">
<path opacity="0.180508" d="M453.799 337.931C795.545 350.281 936.263 222.534 1328.89 369.554" stroke="url(#paint0_linear_30_9308)"/>
<path opacity="0.192542" d="M439.388 316.287C774.076 343.867 921.007 220.342 1296.41 386.911" stroke="url(#paint1_linear_30_9308)"/>
<path opacity="0.204576" d="M425.074 294.474C751.788 337.209 904.529 218.245 1261.68 403.904" stroke="url(#paint2_linear_30_9308)"/>
<path opacity="0.21661" d="M410.845 272.505C728.689 330.278 886.823 216.201 1224.74 420.443" stroke="url(#paint3_linear_30_9308)"/>
<path opacity="0.228644" d="M396.704 250.383C704.807 323.035 867.898 214.157 1185.65 436.422" stroke="url(#paint4_linear_30_9308)"/>
<path opacity="0.240678" d="M382.688 228.099C680.205 315.432 847.808 212.051 1144.53 451.729" stroke="url(#paint5_linear_30_9308)"/>
<path opacity="0.252712" d="M368.768 205.664C654.885 307.438 826.539 209.838 1101.41 466.273" stroke="url(#paint6_linear_30_9308)"/>
<path opacity="0.264746" d="M354.97 183.104C628.901 299.04 804.137 207.489 1056.41 479.977" stroke="url(#paint7_linear_30_9308)"/>
<path opacity="0.27678" d="M341.317 160.361C602.312 290.142 780.649 204.89 1009.64 492.685" stroke="url(#paint8_linear_30_9308)"/>
<path opacity="0.288814" d="M327.798 137.499C575.142 280.768 756.091 202.05 961.16 504.362" stroke="url(#paint9_linear_30_9308)"/>
<path opacity="0.300847" d="M314.411 114.491C547.424 270.856 730.49 198.887 911.079 514.889" stroke="url(#paint10_linear_30_9308)"/>
<path opacity="0.312881" d="M301.2 91.3416C519.246 260.374 703.926 195.351 859.541 524.175" stroke="url(#paint11_linear_30_9308)"/>
<path opacity="0.324915" d="M288.129 68.0739C490.609 249.31 676.397 191.412 806.611 532.158" stroke="url(#paint12_linear_30_9308)"/>
<path opacity="0.336949" d="M275.237 44.6755C461.596 237.619 647.983 187.004 752.439 538.738" stroke="url(#paint13_linear_30_9308)"/>
<path opacity="0.348983" d="M262.516 21.1491C432.243 225.271 618.719 182.078 697.13 543.836" stroke="url(#paint14_linear_30_9308)"/>
<path opacity="0.361017" d="M249.965 -2.48169C402.596 212.259 588.648 176.606 640.8 547.396" stroke="url(#paint15_linear_30_9308)"/>
<path opacity="0.373051" d="M237.587 -26.2134C372.702 198.558 557.822 170.543 583.572 549.349" stroke="url(#paint16_linear_30_9308)"/>
<path opacity="0.385085" d="M225.403 -50.0538C342.633 184.131 526.312 163.831 525.589 549.615" stroke="url(#paint17_linear_30_9308)"/>
<path opacity="0.397119" d="M213.424 -74.0001C312.447 168.957 494.183 156.428 466.988 548.132" stroke="url(#paint18_linear_30_9308)"/>
<path opacity="0.409153" d="M201.62 -98.0138C282.165 153.05 461.459 148.325 407.868 544.876" stroke="url(#paint19_linear_30_9308)"/>
<path opacity="0.421186" d="M189.992 -122.117C251.838 136.365 428.198 139.458 348.358 539.769" stroke="url(#paint20_linear_30_9308)"/>
<path opacity="0.43322" d="M178.588 -146.298C221.565 118.895 394.509 129.797 288.638 532.769" stroke="url(#paint21_linear_30_9308)"/>
<path opacity="0.445254" d="M167.379 -170.545C191.37 100.63 360.423 119.312 228.812 523.842" stroke="url(#paint22_linear_30_9308)"/>
<path opacity="0.457288" d="M156.359 -194.854C161.298 81.5602 325.997 107.97 169.006 512.949" stroke="url(#paint23_linear_30_9308)"/>
<path opacity="0.469322" d="M145.546 -219.202C131.419 61.6948 291.313 95.7602 109.372 500.079" stroke="url(#paint24_linear_30_9308)"/>
<path opacity="0.481356" d="M134.919 -243.607C101.765 41.0018 256.415 82.6296 50.024 485.179" stroke="url(#paint25_linear_30_9308)"/>
<path opacity="0.49339" d="M124.505 -268.028C72.4152 19.5129 221.397 68.589 -8.87902 468.266" stroke="url(#paint26_linear_30_9308)"/>
<path opacity="0.505424" d="M114.28 -292.49C43.3974 -2.80557 186.304 53.5843 -67.2266 449.294" stroke="url(#paint27_linear_30_9308)"/>
<path opacity="0.517458" d="M104.257 -316.972C14.7748 -25.9378 151.213 37.6113 -124.876 428.268" stroke="url(#paint28_linear_30_9308)"/>
<path opacity="0.529492" d="M94.4216 -341.453C-13.414 -49.8661 116.183 20.6681 -181.709 405.201" stroke="url(#paint29_linear_30_9308)"/>
<path opacity="0.541525" d="M84.7174 -365.978C-41.1761 -74.6386 81.2238 2.68729 -237.653 380.043" stroke="url(#paint30_linear_30_9308)"/>
<path opacity="0.553559" d="M75.2539 -390.461C-68.3527 -100.167 46.5148 -16.2613 -292.474 352.883" stroke="url(#paint31_linear_30_9308)"/>
<path opacity="0.565593" d="M65.9863 -414.932C-94.9398 -126.48 12.0806 -36.2241 -346.091 323.697" stroke="url(#paint32_linear_30_9308)"/>
<path opacity="0.577627" d="M56.8975 -439.37C-120.907 -153.549 -22.0271 -57.1911 -398.399 292.52" stroke="url(#paint33_linear_30_9308)"/>
<path opacity="0.589661" d="M47.9746 -463.785C-146.221 -181.379 -55.7527 -79.1831 -449.294 259.36" stroke="url(#paint34_linear_30_9308)"/>
<path opacity="0.601695" d="M39.2263 -488.159C-170.828 -209.943 -89.0192 -102.189 -498.651 224.258" stroke="url(#paint35_linear_30_9308)"/>
<path opacity="0.613729" d="M30.6256 -512.476C-194.712 -239.212 -121.787 -126.195 -546.386 187.26" stroke="url(#paint36_linear_30_9308)"/>
<path opacity="0.625763" d="M22.1948 -536.752C-217.808 -269.189 -153.966 -151.218 -592.37 148.387" stroke="url(#paint37_linear_30_9308)"/>
<path opacity="0.637797" d="M13.9201 -560.954C-240.09 -299.825 -185.507 -177.225 -636.513 107.708" stroke="url(#paint38_linear_30_9308)"/>
<path opacity="0.649831" d="M5.76598 -585.091C-261.555 -331.112 -216.381 -204.218 -678.753 65.2624" stroke="url(#paint39_linear_30_9308)"/>
<path opacity="0.661864" d="M-2.24435 -609.14C-282.144 -363.008 -246.502 -232.168 -718.973 21.1218" stroke="url(#paint40_linear_30_9308)"/>
<path opacity="0.673898" d="M-10.116 -633.116C-301.827 -395.504 -275.815 -261.077 -757.089 -24.6729" stroke="url(#paint41_linear_30_9308)"/>
</g>
<defs>
<linearGradient id="paint0_linear_30_9308" x1="466.358" y1="308.867" x2="1215.27" y2="632.488" gradientUnits="userSpaceOnUse">
<stop stop-color="#4757E6"/>
<stop offset="0.484375" stop-color="#8E54E9"/>
<stop offset="1" stop-color="#FA0A9A"/>
</linearGradient>
<linearGradient id="paint1_linear_30_9308" x1="453.714" y1="287.327" x2="1170.31" y2="641.822" gradientUnits="userSpaceOnUse">
<stop stop-color="#4757E6"/>
<stop offset="0.484375" stop-color="#8E54E9"/>
<stop offset="1" stop-color="#FA0A9A"/>
</linearGradient>
<linearGradient id="paint2_linear_30_9308" x1="441.128" y1="265.698" x2="1125.71" y2="647.622" gradientUnits="userSpaceOnUse">
<stop stop-color="#4757E6"/>
<stop offset="0.484375" stop-color="#8E54E9"/>
<stop offset="1" stop-color="#FA0A9A"/>
</linearGradient>
<linearGradient id="paint3_linear_30_9308" x1="428.583" y1="243.991" x2="1081.74" y2="650.309" gradientUnits="userSpaceOnUse">
<stop stop-color="#4757E6"/>
<stop offset="0.484375" stop-color="#8E54E9"/>
<stop offset="1" stop-color="#FA0A9A"/>
</linearGradient>
<linearGradient id="paint4_linear_30_9308" x1="416.077" y1="222.21" x2="1038.59" y2="650.28" gradientUnits="userSpaceOnUse">
<stop stop-color="#4757E6"/>
<stop offset="0.484375" stop-color="#8E54E9"/>
<stop offset="1" stop-color="#FA0A9A"/>
</linearGradient>
<linearGradient id="paint5_linear_30_9308" x1="403.643" y1="200.344" x2="996.423" y2="647.895" gradientUnits="userSpaceOnUse">
<stop stop-color="#4757E6"/>
<stop offset="0.484375" stop-color="#8E54E9"/>
<stop offset="1" stop-color="#FA0A9A"/>
</linearGradient>
<linearGradient id="paint6_linear_30_9308" x1="391.248" y1="178.403" x2="955.27" y2="643.502" gradientUnits="userSpaceOnUse">
<stop stop-color="#4757E6"/>
<stop offset="0.484375" stop-color="#8E54E9"/>
<stop offset="1" stop-color="#FA0A9A"/>
</linearGradient>
<linearGradient id="paint7_linear_30_9308" x1="378.913" y1="156.411" x2="915.175" y2="637.435" gradientUnits="userSpaceOnUse">
<stop stop-color="#4757E6"/>
<stop offset="0.484375" stop-color="#8E54E9"/>
<stop offset="1" stop-color="#FA0A9A"/>
</linearGradient>
<linearGradient id="paint8_linear_30_9308" x1="366.657" y1="134.311" x2="876.149" y2="629.913" gradientUnits="userSpaceOnUse">
<stop stop-color="#4757E6"/>
<stop offset="0.484375" stop-color="#8E54E9"/>
<stop offset="1" stop-color="#FA0A9A"/>
</linearGradient>
<linearGradient id="paint9_linear_30_9308" x1="354.467" y1="112.162" x2="838.139" y2="621.243" gradientUnits="userSpaceOnUse">
<stop stop-color="#4757E6"/>
<stop offset="0.484375" stop-color="#8E54E9"/>
<stop offset="1" stop-color="#FA0A9A"/>
</linearGradient>
<linearGradient id="paint10_linear_30_9308" x1="342.334" y1="89.9368" x2="801.079" y2="611.618" gradientUnits="userSpaceOnUse">
<stop stop-color="#4757E6"/>
<stop offset="0.484375" stop-color="#8E54E9"/>
<stop offset="1" stop-color="#FA0A9A"/>
</linearGradient>
<linearGradient id="paint11_linear_30_9308" x1="330.302" y1="67.6371" x2="764.939" y2="601.233" gradientUnits="userSpaceOnUse">
<stop stop-color="#4757E6"/>
<stop offset="0.484375" stop-color="#8E54E9"/>
<stop offset="1" stop-color="#FA0A9A"/>
</linearGradient>
<linearGradient id="paint12_linear_30_9308" x1="318.329" y1="45.2845" x2="729.591" y2="590.279" gradientUnits="userSpaceOnUse">
<stop stop-color="#4757E6"/>
<stop offset="0.484375" stop-color="#8E54E9"/>
<stop offset="1" stop-color="#FA0A9A"/>
</linearGradient>
<linearGradient id="paint13_linear_30_9308" x1="306.453" y1="22.8636" x2="694.975" y2="578.891" gradientUnits="userSpaceOnUse">
<stop stop-color="#4757E6"/>
<stop offset="0.484375" stop-color="#8E54E9"/>
<stop offset="1" stop-color="#FA0A9A"/>
</linearGradient>
<linearGradient id="paint14_linear_30_9308" x1="294.662" y1="0.374395" x2="660.978" y2="567.199" gradientUnits="userSpaceOnUse">
<stop stop-color="#4757E6"/>
<stop offset="0.484375" stop-color="#8E54E9"/>
<stop offset="1" stop-color="#FA0A9A"/>
</linearGradient>
<linearGradient id="paint15_linear_30_9308" x1="282.954" y1="-22.1621" x2="627.486" y2="555.339" gradientUnits="userSpaceOnUse">
<stop stop-color="#4757E6"/>
<stop offset="0.484375" stop-color="#8E54E9"/>
<stop offset="1" stop-color="#FA0A9A"/>
</linearGradient>
<linearGradient id="paint16_linear_30_9308" x1="271.327" y1="-44.7457" x2="594.384" y2="543.41" gradientUnits="userSpaceOnUse">
<stop stop-color="#4757E6"/>
<stop offset="0.484375" stop-color="#8E54E9"/>
<stop offset="1" stop-color="#FA0A9A"/>
</linearGradient>
<linearGradient id="paint17_linear_30_9308" x1="259.802" y1="-67.3872" x2="561.569" y2="531.485" gradientUnits="userSpaceOnUse">
<stop stop-color="#4757E6"/>
<stop offset="0.484375" stop-color="#8E54E9"/>
<stop offset="1" stop-color="#FA0A9A"/>
</linearGradient>
<linearGradient id="paint18_linear_30_9308" x1="248.388" y1="-90.087" x2="528.921" y2="519.636" gradientUnits="userSpaceOnUse">
<stop stop-color="#4757E6"/>
<stop offset="0.484375" stop-color="#8E54E9"/>
<stop offset="1" stop-color="#FA0A9A"/>
</linearGradient>
<linearGradient id="paint19_linear_30_9308" x1="237.053" y1="-112.81" x2="496.277" y2="507.958" gradientUnits="userSpaceOnUse">
<stop stop-color="#4757E6"/>
<stop offset="0.484375" stop-color="#8E54E9"/>
<stop offset="1" stop-color="#FA0A9A"/>
</linearGradient>
<linearGradient id="paint20_linear_30_9308" x1="225.797" y1="-135.582" x2="463.493" y2="496.469" gradientUnits="userSpaceOnUse">
<stop stop-color="#4757E6"/>
<stop offset="0.484375" stop-color="#8E54E9"/>
<stop offset="1" stop-color="#FA0A9A"/>
</linearGradient>
<linearGradient id="paint21_linear_30_9308" x1="214.667" y1="-158.395" x2="430.468" y2="485.214" gradientUnits="userSpaceOnUse">
<stop stop-color="#4757E6"/>
<stop offset="0.484375" stop-color="#8E54E9"/>
<stop offset="1" stop-color="#FA0A9A"/>
</linearGradient>
<linearGradient id="paint22_linear_30_9308" x1="203.633" y1="-181.241" x2="397.014" y2="474.217" gradientUnits="userSpaceOnUse">
<stop stop-color="#4757E6"/>
<stop offset="0.484375" stop-color="#8E54E9"/>
<stop offset="1" stop-color="#FA0A9A"/>
</linearGradient>
<linearGradient id="paint23_linear_30_9308" x1="192.689" y1="-204.12" x2="362.957" y2="463.484" gradientUnits="userSpaceOnUse">
<stop stop-color="#4757E6"/>
<stop offset="0.484375" stop-color="#8E54E9"/>
<stop offset="1" stop-color="#FA0A9A"/>
</linearGradient>
<linearGradient id="paint24_linear_30_9308" x1="181.851" y1="-227.012" x2="328.133" y2="453.021" gradientUnits="userSpaceOnUse">
<stop stop-color="#4757E6"/>
<stop offset="0.484375" stop-color="#8E54E9"/>
<stop offset="1" stop-color="#FA0A9A"/>
</linearGradient>
<linearGradient id="paint25_linear_30_9308" x1="171.101" y1="-249.939" x2="292.336" y2="442.771" gradientUnits="userSpaceOnUse">
<stop stop-color="#4757E6"/>
<stop offset="0.484375" stop-color="#8E54E9"/>
<stop offset="1" stop-color="#FA0A9A"/>
</linearGradient>
<linearGradient id="paint26_linear_30_9308" x1="160.464" y1="-272.866" x2="255.388" y2="432.713" gradientUnits="userSpaceOnUse">
<stop stop-color="#4757E6"/>
<stop offset="0.484375" stop-color="#8E54E9"/>
<stop offset="1" stop-color="#FA0A9A"/>
</linearGradient>
<linearGradient id="paint27_linear_30_9308" x1="149.918" y1="-295.82" x2="217.056" y2="422.732" gradientUnits="userSpaceOnUse">
<stop stop-color="#4757E6"/>
<stop offset="0.484375" stop-color="#8E54E9"/>
<stop offset="1" stop-color="#FA0A9A"/>
</linearGradient>
<linearGradient id="paint28_linear_30_9308" x1="139.476" y1="-318.785" x2="177.128" y2="412.723" gradientUnits="userSpaceOnUse">
<stop stop-color="#4757E6"/>
<stop offset="0.484375" stop-color="#8E54E9"/>
<stop offset="1" stop-color="#FA0A9A"/>
</linearGradient>
<linearGradient id="paint29_linear_30_9308" x1="129.125" y1="-341.744" x2="135.362" y2="402.545" gradientUnits="userSpaceOnUse">
<stop stop-color="#4757E6"/>
<stop offset="0.484375" stop-color="#8E54E9"/>
<stop offset="1" stop-color="#FA0A9A"/>
</linearGradient>
<linearGradient id="paint30_linear_30_9308" x1="118.81" y1="-364.746" x2="91.4663" y2="391.937" gradientUnits="userSpaceOnUse">
<stop stop-color="#4757E6"/>
<stop offset="0.484375" stop-color="#8E54E9"/>
<stop offset="1" stop-color="#FA0A9A"/>
</linearGradient>
<linearGradient id="paint31_linear_30_9308" x1="108.643" y1="-387.71" x2="45.32" y2="380.719" gradientUnits="userSpaceOnUse">
<stop stop-color="#4757E6"/>
<stop offset="0.484375" stop-color="#8E54E9"/>
<stop offset="1" stop-color="#FA0A9A"/>
</linearGradient>
<linearGradient id="paint32_linear_30_9308" x1="98.5797" y1="-410.669" x2="-3.34195" y2="368.53" gradientUnits="userSpaceOnUse">
<stop stop-color="#4757E6"/>
<stop offset="0.484375" stop-color="#8E54E9"/>
<stop offset="1" stop-color="#FA0A9A"/>
</linearGradient>
<linearGradient id="paint33_linear_30_9308" x1="88.606" y1="-433.606" x2="-54.7332" y2="354.987" gradientUnits="userSpaceOnUse">
<stop stop-color="#4757E6"/>
<stop offset="0.484375" stop-color="#8E54E9"/>
<stop offset="1" stop-color="#FA0A9A"/>
</linearGradient>
<linearGradient id="paint34_linear_30_9308" x1="78.7113" y1="-456.537" x2="-109.022" y2="339.598" gradientUnits="userSpaceOnUse">
<stop stop-color="#4757E6"/>
<stop offset="0.484375" stop-color="#8E54E9"/>
<stop offset="1" stop-color="#FA0A9A"/>
</linearGradient>
<linearGradient id="paint35_linear_30_9308" x1="68.907" y1="-479.447" x2="-166.295" y2="321.817" gradientUnits="userSpaceOnUse">
<stop stop-color="#4757E6"/>
<stop offset="0.484375" stop-color="#8E54E9"/>
<stop offset="1" stop-color="#FA0A9A"/>
</linearGradient>
<linearGradient id="paint36_linear_30_9308" x1="59.1689" y1="-502.323" x2="-226.586" y2="301.016" gradientUnits="userSpaceOnUse">
<stop stop-color="#4757E6"/>
<stop offset="0.484375" stop-color="#8E54E9"/>
<stop offset="1" stop-color="#FA0A9A"/>
</linearGradient>
<linearGradient id="paint37_linear_30_9308" x1="49.5224" y1="-525.186" x2="-289.76" y2="276.461" gradientUnits="userSpaceOnUse">
<stop stop-color="#4757E6"/>
<stop offset="0.484375" stop-color="#8E54E9"/>
<stop offset="1" stop-color="#FA0A9A"/>
</linearGradient>
<linearGradient id="paint38_linear_30_9308" x1="39.9573" y1="-548.007" x2="-355.566" y2="247.41" gradientUnits="userSpaceOnUse">
<stop stop-color="#4757E6"/>
<stop offset="0.484375" stop-color="#8E54E9"/>
<stop offset="1" stop-color="#FA0A9A"/>
</linearGradient>
<linearGradient id="paint39_linear_30_9308" x1="30.4412" y1="-570.798" x2="-423.594" y2="213.059" gradientUnits="userSpaceOnUse">
<stop stop-color="#4757E6"/>
<stop offset="0.484375" stop-color="#8E54E9"/>
<stop offset="1" stop-color="#FA0A9A"/>
</linearGradient>
<linearGradient id="paint40_linear_30_9308" x1="21.0014" y1="-593.541" x2="-493.158" y2="172.656" gradientUnits="userSpaceOnUse">
<stop stop-color="#4757E6"/>
<stop offset="0.484375" stop-color="#8E54E9"/>
<stop offset="1" stop-color="#FA0A9A"/>
</linearGradient>
<linearGradient id="paint41_linear_30_9308" x1="11.6365" y1="-616.253" x2="-563.378" y2="125.495" gradientUnits="userSpaceOnUse">
<stop stop-color="#4757E6"/>
<stop offset="0.484375" stop-color="#8E54E9"/>
<stop offset="1" stop-color="#FA0A9A"/>
</linearGradient>
</defs>
</svg>
