<svg width="68" height="68" viewBox="0 0 68 68" fill="none" xmlns="http://www.w3.org/2000/svg">
<g id="Group 3154">
<path id="Vector" opacity="0.4" d="M34 68C52.7777 68 68 52.7777 68 34C68 15.2223 52.7777 0 34 0C15.2223 0 0 15.2223 0 34C0 52.7777 15.2223 68 34 68Z" fill="#717171"/>
<path id="Vector_2" d="M33.9996 16.7627C26.9618 16.7627 21.25 22.4745 21.25 29.5123C21.25 36.4141 26.6558 42.0239 33.8296 42.2279C33.9316 42.2279 34.0676 42.2279 34.1356 42.2279C34.2036 42.2279 34.3056 42.2279 34.3736 42.2279C34.4076 42.2279 34.4416 42.2279 34.4416 42.2279C41.3094 41.9899 46.7152 36.4141 46.7492 29.5123C46.7492 22.4745 41.0374 16.7627 33.9996 16.7627Z" fill="#454545"/>
<path id="Vector_3" d="M57.0527 58.9915C51.0007 64.5675 42.9087 68.0015 34.0007 68.0015C25.0927 68.0015 17.0007 64.5675 10.9487 58.9915C11.7647 55.8975 13.9747 53.0755 17.2047 50.8995C26.4867 44.7115 41.5827 44.7115 50.7967 50.8995C54.0607 53.0755 56.2367 55.8975 57.0527 58.9915Z" fill="#454545"/>
</g>
</svg>
