<svg width="70" height="70" viewBox="0 0 70 70" fill="none" xmlns="http://www.w3.org/2000/svg">
<path d="M49.665 0H20.335C7.595 0 0 7.595 0 20.335V49.63C0 62.405 7.595 70 20.335 70H49.63C62.37 70 69.965 62.405 69.965 49.665V20.335C70 7.595 62.405 0 49.665 0Z" fill="url(#paint0_linear_591_1521)"/>
<path d="M26.7143 21.7442H26.2857V17.3256C26.2857 16.6009 25.7029 16 25 16C24.2971 16 23.7143 16.6009 23.7143 17.3256V21.7442H23.2857C20.56 21.7442 19 23.3526 19 26.1628V36.7674C19 39.5777 20.56 41.186 23.2857 41.186H23.7143V52.6744C23.7143 53.3991 24.2971 54 25 54C25.7029 54 26.2857 53.3991 26.2857 52.6744V41.186H26.7143C29.44 41.186 31 39.5777 31 36.7674V26.1628C31 23.3526 29.44 21.7442 26.7143 21.7442Z" fill="white"/>
<path d="M46.7143 28.814H46.2857V17.3256C46.2857 16.6009 45.7029 16 45 16C44.2971 16 43.7143 16.6009 43.7143 17.3256V28.814H43.2857C40.56 28.814 39 30.4223 39 33.2326V43.8372C39 46.6474 40.56 48.2558 43.2857 48.2558H43.7143V52.6744C43.7143 53.3991 44.2971 54 45 54C45.7029 54 46.2857 53.3991 46.2857 52.6744V48.2558H46.7143C49.44 48.2558 51 46.6474 51 43.8372V33.2326C51 30.4223 49.44 28.814 46.7143 28.814Z" fill="white"/>
<defs>
<linearGradient id="paint0_linear_591_1521" x1="-5.21281e-07" y1="35" x2="69.9651" y2="35" gradientUnits="userSpaceOnUse">
<stop stop-color="#4757E6"/>
<stop offset="0.484375" stop-color="#8E54E9"/>
<stop offset="1" stop-color="#FA0A9A"/>
</linearGradient>
</defs>
</svg>
