<svg width="30" height="30" viewBox="0 0 30 30" fill="none" xmlns="http://www.w3.org/2000/svg">
<path d="M12.8714 21.3807L22.9559 11.2961L21.3752 9.71539L12.8714 18.2192L8.59637 13.9442L7.01563 15.525L12.8714 21.3807ZM15.0027 29.2499C13.0318 29.2499 11.1793 28.8759 9.44507 28.1279C7.71084 27.3799 6.20232 26.3648 4.91949 25.0826C3.63664 23.8003 2.62106 22.2924 1.87273 20.559C1.12441 18.8255 0.750244 16.9734 0.750244 15.0025C0.750244 13.0316 1.12424 11.179 1.87224 9.44483C2.62024 7.7106 3.63537 6.20208 4.91762 4.91925C6.19989 3.6364 7.70776 2.62081 9.44121 1.87249C11.1746 1.12416 13.0268 0.75 14.9977 0.75C16.9686 0.75 18.8211 1.124 20.5553 1.872C22.2896 2.62 23.7981 3.63513 25.0809 4.91738C26.3638 6.19965 27.3794 7.70751 28.1277 9.44096C28.876 11.1744 29.2502 13.0266 29.2502 14.9975C29.2502 16.9684 28.8762 18.8209 28.1282 20.5551C27.3802 22.2893 26.365 23.7979 25.0828 25.0807C23.8005 26.3635 22.2927 27.3791 20.5592 28.1274C18.8258 28.8758 16.9736 29.2499 15.0027 29.2499Z" fill="url(#paint0_linear_30_10683)"/>
<defs>
<linearGradient id="paint0_linear_30_10683" x1="0.750244" y1="15" x2="29.2502" y2="15" gradientUnits="userSpaceOnUse">
<stop stop-color="#4757E6"/>
<stop offset="0.765" stop-color="#8E54E9"/>
</linearGradient>
</defs>
</svg>
