<svg width="20" height="19" viewBox="0 0 20 19" fill="none" xmlns="http://www.w3.org/2000/svg">
<g id="diagram">
<g id="vuesax/outline/diagram">
<g id="diagram_2">
<path id="Vector" d="M17.4325 18.0104H3.97412C2.33537 18.0104 1.00537 16.6804 1.00537 15.0417V1.58334C1.00537 1.25875 1.27454 0.989586 1.59912 0.989586C1.9237 0.989586 2.19287 1.25875 2.19287 1.58334V15.0417C2.19287 16.0233 2.99245 16.8229 3.97412 16.8229H17.4325C17.757 16.8229 18.0262 17.0921 18.0262 17.4167C18.0262 17.7413 17.757 18.0104 17.4325 18.0104Z" fill="#4D57E6"/>
<path id="Vector_2" d="M3.97398 14.0521C3.8394 14.0521 3.6969 14.0046 3.58606 13.9096C3.34065 13.6958 3.30898 13.3238 3.52273 13.0704L7.15648 8.82708C7.55231 8.36791 8.12231 8.09084 8.72398 8.06709C9.32565 8.05125 9.9194 8.27291 10.3469 8.70041L11.099 9.4525C11.2969 9.65042 11.5581 9.74542 11.8352 9.74542C12.1123 9.7375 12.3656 9.61083 12.5477 9.39708L16.1815 5.15376C16.3952 4.90834 16.7673 4.87666 17.0206 5.09041C17.2661 5.30416 17.2977 5.67624 17.084 5.92958L13.4502 10.1729C13.0544 10.6321 12.4844 10.9092 11.8827 10.9329C11.2811 10.9487 10.6873 10.7271 10.2598 10.2996L9.51565 9.5475C9.31773 9.34958 9.05648 9.24667 8.7794 9.25459C8.50231 9.2625 8.24898 9.38917 8.0669 9.60292L4.43315 13.8462C4.30648 13.9808 4.14023 14.0521 3.97398 14.0521Z" fill="#4D57E6"/>
</g>
</g>
</g>
</svg>
