<svg width="82" height="80" viewBox="0 0 82 80" fill="none" xmlns="http://www.w3.org/2000/svg">
<g id="diagram">
<g id="vuesax/outline/diagram">
<g id="diagram_2">
<path id="Vector" d="M75.1663 75.8333H17.083C10.0105 75.8333 4.27051 70.2333 4.27051 63.3333V6.66667C4.27051 5.30001 5.43217 4.16667 6.83301 4.16667C8.23384 4.16667 9.39551 5.30001 9.39551 6.66667V63.3333C9.39551 67.4667 12.8463 70.8333 17.083 70.8333H75.1663C76.5672 70.8333 77.7288 71.9667 77.7288 73.3333C77.7288 74.7 76.5672 75.8333 75.1663 75.8333Z" fill="url(#paint0_linear_161_934)"/>
<path id="Vector_2" d="M17.0824 59.1667C16.5016 59.1667 15.8866 58.9667 15.4082 58.5667C14.3491 57.6667 14.2124 56.1 15.1349 55.0334L30.8174 37.1667C32.5257 35.2333 34.9857 34.0667 37.5824 33.9667C40.1791 33.9 42.7416 34.8333 44.5866 36.6333L47.8324 39.8C48.6866 40.6334 49.8141 41.0333 51.0099 41.0333C52.2057 41 53.2991 40.4667 54.0849 39.5667L69.7674 21.7C70.6899 20.6667 72.2957 20.5333 73.3891 21.4333C74.4482 22.3333 74.5849 23.9 73.6624 24.9666L57.9799 42.8334C56.2716 44.7667 53.8116 45.9333 51.2149 46.0333C48.6182 46.1 46.0557 45.1667 44.2107 43.3667L40.9991 40.2C40.1449 39.3667 39.0174 38.9334 37.8216 38.9667C36.6257 39 35.5324 39.5334 34.7466 40.4334L19.0641 58.3C18.5174 58.8666 17.7999 59.1667 17.0824 59.1667Z" fill="url(#paint1_linear_161_934)"/>
</g>
</g>
</g>
<defs>
<linearGradient id="paint0_linear_161_934" x1="4.27051" y1="40" x2="77.7288" y2="40" gradientUnits="userSpaceOnUse">
<stop stop-color="#4757E6"/>
<stop offset="0.484375" stop-color="#8E54E9"/>
<stop offset="1" stop-color="#FA0A9A"/>
</linearGradient>
<linearGradient id="paint1_linear_161_934" x1="14.5205" y1="40.0003" x2="74.2768" y2="40.0003" gradientUnits="userSpaceOnUse">
<stop stop-color="#4757E6"/>
<stop offset="0.484375" stop-color="#8E54E9"/>
<stop offset="1" stop-color="#FA0A9A"/>
</linearGradient>
</defs>
</svg>
