<svg width="20" height="20" viewBox="0 0 20 20" fill="none" xmlns="http://www.w3.org/2000/svg">
<path d="M19.5 8.9V2.1C19.5 0.6 18.86 0 17.27 0H13.23C11.64 0 11 0.6 11 2.1V8.9C11 10.4 11.64 11 13.23 11H17.27C18.86 11 19.5 10.4 19.5 8.9Z" fill="url(#paint0_linear_2301_24)"/>
<path d="M9 11.1V17.9C9 19.4 8.36 20 6.77 20H2.73C1.14 20 0.5 19.4 0.5 17.9V11.1C0.5 9.6 1.14 9 2.73 9H6.77C8.36 9 9 9.6 9 11.1Z" fill="url(#paint1_linear_2301_24)"/>
<path d="M19.5 17.9V15.1C19.5 13.6 18.86 13 17.27 13H13.23C11.64 13 11 13.6 11 15.1V17.9C11 19.4 11.64 20 13.23 20H17.27C18.86 20 19.5 19.4 19.5 17.9Z" fill="url(#paint2_linear_2301_24)"/>
<path d="M9 4.9V2.1C9 0.6 8.36 0 6.77 0H2.73C1.14 0 0.5 0.6 0.5 2.1V4.9C0.5 6.4 1.14 7 2.73 7H6.77C8.36 7 9 6.4 9 4.9Z" fill="url(#paint3_linear_2301_24)"/>
<defs>
<linearGradient id="paint0_linear_2301_24" x1="11" y1="5.5" x2="19.5" y2="5.5" gradientUnits="userSpaceOnUse">
<stop stop-color="#4757E6"/>
<stop offset="0.0001" stop-color="#8E54E9"/>
<stop offset="1" stop-color="#FA0A9A"/>
</linearGradient>
<linearGradient id="paint1_linear_2301_24" x1="0.5" y1="14.5" x2="9" y2="14.5" gradientUnits="userSpaceOnUse">
<stop stop-color="#4757E6"/>
<stop offset="0.9999" stop-color="#8E54E9"/>
<stop offset="1" stop-color="#FA0A9A"/>
</linearGradient>
<linearGradient id="paint2_linear_2301_24" x1="11" y1="16.5" x2="19.5" y2="16.5" gradientUnits="userSpaceOnUse">
<stop stop-color="#4757E6"/>
<stop offset="0.0001" stop-color="#8E54E9"/>
<stop offset="1" stop-color="#FA0A9A"/>
</linearGradient>
<linearGradient id="paint3_linear_2301_24" x1="0.5" y1="3.5" x2="9" y2="3.5" gradientUnits="userSpaceOnUse">
<stop stop-color="#4757E6"/>
<stop offset="0.9999" stop-color="#8E54E9"/>
<stop offset="1" stop-color="#FA0A9A"/>
</linearGradient>
</defs>
</svg>
