<svg width="107" height="70" viewBox="0 0 107 70" fill="none" xmlns="http://www.w3.org/2000/svg">
<path d="M29.8094 39.1181H4.70674C2.13372 39.1181 0 37.5533 0 35.6665C0 33.7796 2.13372 32.2148 4.70674 32.2148H29.8094C32.3824 32.2148 34.5161 33.7796 34.5161 35.6665C34.5161 37.5533 32.3824 39.1181 29.8094 39.1181Z" fill="url(#paint0_linear_591_1542)"/>
<path d="M31.7836 49.7603H15.6761C14.0251 49.7603 12.6559 48.3912 12.6559 46.7401C12.6559 45.0891 14.0251 43.72 15.6761 43.72H31.7836C33.4346 43.72 34.8038 45.0891 34.8038 46.7401C34.8038 48.3912 33.4346 49.7603 31.7836 49.7603Z" fill="url(#paint1_linear_591_1542)"/>
<path d="M31.7836 27.9002H15.6761C14.0251 27.9002 12.6559 26.531 12.6559 24.88C12.6559 23.229 14.0251 21.8599 15.6761 21.8599H31.7836C33.4346 21.8599 34.8038 23.229 34.8038 24.88C34.8038 26.531 33.4346 27.9002 31.7836 27.9002Z" fill="url(#paint2_linear_591_1542)"/>
<circle cx="72.4839" cy="34.5161" r="34.5161" fill="url(#paint3_linear_591_1542)"/>
<path d="M84.2654 32.8995C84.8291 31.7719 85.1916 30.5237 85.1916 29.1948C85.1916 24.886 81.4466 21.141 77.1378 21.141H74.6814V19.1276C74.6814 17.4766 73.3123 16.1074 71.6612 16.1074C70.0102 16.1074 68.6411 17.4766 68.6411 19.1276V21.141H64.5739H60.547C58.896 21.141 57.5269 22.5102 57.5269 24.1612C57.5269 25.8122 58.896 27.1813 60.547 27.1813H61.5538V34.2284V41.2754H60.547C58.896 41.2754 57.5269 42.6446 57.5269 44.2956C57.5269 45.9466 58.896 47.3158 60.547 47.3158H64.5739H68.6411V49.3292C68.6411 50.9802 70.0102 52.3494 71.6612 52.3494C73.3123 52.3494 74.6814 50.9802 74.6814 49.3292V47.3158H78.9499C83.7822 47.3158 87.7285 43.6916 87.7285 39.262C87.7285 36.6445 86.3594 34.3894 84.2654 32.8995ZM69.3659 27.1813H77.1781C78.2251 27.1813 79.1915 28.3089 79.1915 29.1948C79.1915 30.3223 78.3056 31.2082 77.1781 31.2082H67.5941V27.1813H69.3659ZM78.9499 41.2754H69.3659H67.5941V37.2486H77.1781H78.9902C80.4801 37.2486 81.7284 38.1747 81.7284 39.262C81.7284 40.3492 80.4398 41.2754 78.9499 41.2754Z" fill="white"/>
<defs>
<linearGradient id="paint0_linear_591_1542" x1="-2.57165e-07" y1="35.6665" x2="34.5161" y2="35.6665" gradientUnits="userSpaceOnUse">
<stop stop-color="#4757E6"/>
<stop offset="0.9999" stop-color="#8E54E9"/>
<stop offset="1" stop-color="#FA0A9A"/>
</linearGradient>
<linearGradient id="paint1_linear_591_1542" x1="12.6559" y1="46.7401" x2="34.8038" y2="46.7401" gradientUnits="userSpaceOnUse">
<stop stop-color="#4757E6"/>
<stop offset="0.9999" stop-color="#8E54E9"/>
<stop offset="1" stop-color="#FA0A9A"/>
</linearGradient>
<linearGradient id="paint2_linear_591_1542" x1="12.6559" y1="24.88" x2="34.8038" y2="24.88" gradientUnits="userSpaceOnUse">
<stop stop-color="#4757E6"/>
<stop offset="0.9999" stop-color="#8E54E9"/>
<stop offset="1" stop-color="#FA0A9A"/>
</linearGradient>
<linearGradient id="paint3_linear_591_1542" x1="37.9678" y1="34.5161" x2="107" y2="34.5161" gradientUnits="userSpaceOnUse">
<stop stop-color="#4757E6"/>
<stop offset="0.484375" stop-color="#8E54E9"/>
<stop offset="1" stop-color="#FA0A9A"/>
</linearGradient>
</defs>
</svg>
