<svg width="30" height="26" viewBox="0 0 30 26" fill="none" xmlns="http://www.w3.org/2000/svg">
<path d="M22.0833 0.958496H7.91667C3.66667 0.958496 0.833334 3.0835 0.833334 8.04183V17.9585C0.833334 22.9168 3.66667 25.0418 7.91667 25.0418H22.0833C26.3333 25.0418 29.1667 22.9168 29.1667 17.9585V8.04183C29.1667 3.0835 26.3333 0.958496 22.0833 0.958496ZM22.7492 9.586L18.315 13.1277C17.38 13.8785 16.19 14.2468 15 14.2468C13.81 14.2468 12.6058 13.8785 11.685 13.1277L7.25083 9.586C6.7975 9.21766 6.72667 8.53766 7.08083 8.08433C7.44917 7.631 8.115 7.546 8.56833 7.91433L13.0025 11.456C14.0792 12.3202 15.9067 12.3202 16.9833 11.456L21.4175 7.91433C21.8708 7.546 22.5508 7.61683 22.905 8.08433C23.2733 8.53766 23.2025 9.21766 22.7492 9.586Z" fill="url(#paint0_linear_103_1398)"/>
<defs>
<linearGradient id="paint0_linear_103_1398" x1="-29.5833" y1="13.7085" x2="47.0825" y2="14.1987" gradientUnits="userSpaceOnUse">
<stop offset="0.484375" stop-color="#8E54E9"/>
<stop offset="0.848958" stop-color="#F210A0"/>
<stop offset="1" stop-color="#FA0A9A"/>
</linearGradient>
</defs>
</svg>
