<svg width="20" height="20" viewBox="0 0 20 20" fill="none" xmlns="http://www.w3.org/2000/svg">
<g id="people">
<g id="vuesax/bulk/people">
<g id="people_2">
<path id="Vector" opacity="0.4" d="M14.3778 6.65123C14.3224 6.64332 14.267 6.64332 14.2116 6.65123C12.9845 6.61165 12.0107 5.60623 12.0107 4.37123C12.0107 3.11248 13.032 2.08331 14.2987 2.08331C15.5574 2.08331 16.5866 3.10456 16.5866 4.37123C16.5787 5.60623 15.6049 6.61165 14.3778 6.65123Z" fill="#4D57E6"/>
<path id="Vector_2" opacity="0.4" d="M16.9587 12.1375C16.072 12.7313 14.8291 12.9529 13.6812 12.8025C13.982 12.1533 14.1404 11.4329 14.1483 10.6729C14.1483 9.88126 13.9741 9.12918 13.6416 8.4721C14.8133 8.31377 16.0562 8.53542 16.9508 9.12917C18.2016 9.9525 18.2016 11.3063 16.9587 12.1375Z" fill="#4D57E6"/>
<path id="Vector_3" opacity="0.4" d="M5.5984 6.65123C5.65381 6.64332 5.70923 6.64332 5.76465 6.65123C6.99173 6.61165 7.96548 5.60623 7.96548 4.37123C7.96548 3.11248 6.94423 2.08331 5.67756 2.08331C4.41881 2.08331 3.38965 3.10456 3.38965 4.37123C3.39757 5.60623 4.37131 6.61165 5.5984 6.65123Z" fill="#4D57E6"/>
<path id="Vector_4" opacity="0.4" d="M5.68514 10.6729C5.68514 11.4408 5.85139 12.1692 6.15223 12.8262C5.03598 12.945 3.87223 12.7075 3.01723 12.1454C1.76639 11.3142 1.76639 9.96039 3.01723 9.12914C3.86431 8.55914 5.05973 8.32956 6.18389 8.45623C5.85931 9.12123 5.68514 9.87332 5.68514 10.6729Z" fill="#4D57E6"/>
<path id="Vector_5" d="M10.0948 13.0637C10.0315 13.0558 9.96022 13.0558 9.88897 13.0637C8.43231 13.0162 7.26855 11.8208 7.26855 10.3483C7.26855 8.84417 8.47981 7.625 9.99189 7.625C11.4961 7.625 12.7152 8.84417 12.7152 10.3483C12.7152 11.8208 11.5594 13.0162 10.0948 13.0637Z" fill="#4D57E6"/>
<path id="Vector_6" d="M7.52254 14.7025C6.32712 15.5021 6.32712 16.8163 7.52254 17.6079C8.88421 18.5184 11.1167 18.5184 12.4784 17.6079C13.6738 16.8084 13.6738 15.4942 12.4784 14.7025C11.1246 13.7921 8.89212 13.7921 7.52254 14.7025Z" fill="#4D57E6"/>
</g>
</g>
</g>
</svg>
