<svg width="19" height="19" viewBox="0 0 19 19" fill="none" xmlns="http://www.w3.org/2000/svg">
<g id="received">
<g id="vuesax/bulk/received">
<g id="received_2">
<g id="received_3">
<g id="Group">
<g id="Group_2">
<path id="Vector" d="M15.0413 14.4084C15.1996 14.4084 15.3579 14.3292 15.4371 14.25C15.6746 14.0125 15.6746 13.6167 15.4371 13.3792L4.35378 2.29586C4.11628 2.05836 3.72044 2.05836 3.48294 2.29586C3.24544 2.53336 3.24544 2.9292 3.48294 3.1667L14.5663 14.25C14.7246 14.4084 14.8829 14.4084 15.0413 14.4084Z" fill="#4D57E6"/>
</g>
<g id="Group_3">
<path id="Vector_2" d="M6.88731 14.4084H15.0415C15.3581 14.4084 15.6748 14.1709 15.6748 13.775V5.70004C15.6748 5.38338 15.4373 5.06671 15.0415 5.06671C14.6456 5.06671 14.4081 5.30421 14.4081 5.70004V13.2209H6.88731C6.57064 13.2209 6.25397 13.4584 6.25397 13.8542C6.25397 14.25 6.57064 14.4084 6.88731 14.4084Z" fill="#4D57E6"/>
</g>
</g>
<path id="Vector_3" opacity="0.4" d="M2.77064 18.05H16.229C16.5456 18.05 16.8623 17.8125 16.8623 17.4167C16.8623 17.0208 16.6248 16.7833 16.229 16.7833H2.77064C2.45397 16.7833 2.13731 17.0208 2.13731 17.4167C2.13731 17.8125 2.45397 18.05 2.77064 18.05Z" fill="#4D57E6"/>
</g>
</g>
</g>
</g>
</svg>
