<svg width="80" height="80" viewBox="0 0 80 80" fill="none" xmlns="http://www.w3.org/2000/svg">
<g id="received">
<g id="vuesax/bulk/received">
<g id="received_2">
<g id="received_3">
<g id="Group">
<g id="Group_2">
<path id="Vector" d="M63.3333 60.6667C64 60.6667 64.6667 60.3333 65 60C66 59 66 57.3333 65 56.3333L18.3333 9.66667C17.3333 8.66667 15.6667 8.66667 14.6667 9.66667C13.6667 10.6667 13.6667 12.3333 14.6667 13.3333L61.3333 60C62 60.6667 62.6667 60.6667 63.3333 60.6667Z" fill="url(#paint0_linear_161_940)"/>
</g>
<g id="Group_3">
<path id="Vector_2" d="M29 60.6667H63.3333C64.6667 60.6667 66 59.6667 66 58V24C66 22.6667 65 21.3333 63.3333 21.3333C61.6667 21.3333 60.6667 22.3333 60.6667 24V55.6667H29C27.6667 55.6667 26.3333 56.6667 26.3333 58.3333C26.3333 60 27.6667 60.6667 29 60.6667Z" fill="url(#paint1_linear_161_940)"/>
</g>
</g>
<path id="Vector_3" d="M11.6667 76H68.3333C69.6667 76 71 75 71 73.3333C71 71.6667 70 70.6667 68.3333 70.6667H11.6667C10.3333 70.6667 9 71.6667 9 73.3333C9 75 10.3333 76 11.6667 76Z" fill="url(#paint2_linear_161_940)"/>
</g>
</g>
</g>
</g>
<defs>
<linearGradient id="paint0_linear_161_940" x1="65.75" y1="34.7917" x2="13.9167" y2="34.7917" gradientUnits="userSpaceOnUse">
<stop stop-color="#4757E6"/>
<stop offset="0.484375" stop-color="#8E54E9"/>
<stop offset="1" stop-color="#FA0A9A"/>
</linearGradient>
<linearGradient id="paint1_linear_161_940" x1="66" y1="41" x2="26.3333" y2="41" gradientUnits="userSpaceOnUse">
<stop stop-color="#4757E6"/>
<stop offset="0.484375" stop-color="#8E54E9"/>
<stop offset="1" stop-color="#FA0A9A"/>
</linearGradient>
<linearGradient id="paint2_linear_161_940" x1="71" y1="73.3333" x2="9" y2="73.3333" gradientUnits="userSpaceOnUse">
<stop stop-color="#4757E6"/>
<stop offset="0.484375" stop-color="#8E54E9"/>
<stop offset="1" stop-color="#FA0A9A"/>
</linearGradient>
</defs>
</svg>
