<svg width="40" height="40" viewBox="0 0 40 40" fill="none" xmlns="http://www.w3.org/2000/svg">
<path d="M15 25C14.0795 25 13.3333 25.7462 13.3333 26.6667C13.3333 27.5872 14.0795 28.3333 15 28.3333C15.9205 28.3333 16.6667 27.5872 16.6667 26.6667C16.6667 25.7462 15.9205 25 15 25Z" fill="url(#paint0_linear_1_1840)"/>
<path d="M23.3333 26.6667C23.3333 25.7462 24.0795 25 25 25C25.9205 25 26.6667 25.7462 26.6667 26.6667C26.6667 27.5872 25.9205 28.3333 25 28.3333C24.0795 28.3333 23.3333 27.5872 23.3333 26.6667Z" fill="url(#paint1_linear_1_1840)"/>
<path fill-rule="evenodd" clip-rule="evenodd" d="M20 1.66675C18.159 1.66675 16.6667 3.15913 16.6667 5.00008C16.6667 6.23388 17.337 7.31113 18.3333 7.88748V11.6667H10C7.23858 11.6667 5 13.9053 5 16.6667V33.3334C5 36.0949 7.23858 38.3334 10 38.3334H30C32.7615 38.3334 35 36.0949 35 33.3334V16.6667C35 13.9053 32.7615 11.6667 30 11.6667H21.6667V7.88748C22.663 7.31113 23.3333 6.23388 23.3333 5.00008C23.3333 3.15913 21.841 1.66675 20 1.66675ZM8.33333 16.6667C8.33333 15.7463 9.07953 15.0001 10 15.0001H12.3033L14.7153 19.8241C15.2799 20.9534 16.4341 21.6667 17.6967 21.6667H22.3033C23.5658 21.6667 24.72 20.9534 25.2847 19.8241L27.6967 15.0001H30C30.9205 15.0001 31.6667 15.7463 31.6667 16.6667V33.3334C31.6667 34.2539 30.9205 35.0001 30 35.0001H10C9.07953 35.0001 8.33333 34.2539 8.33333 33.3334V16.6667ZM22.3033 18.3334L23.97 15.0001H16.03L17.6967 18.3334H22.3033Z" fill="url(#paint2_linear_1_1840)"/>
<path d="M1.66667 23.3333C0.746192 23.3333 0 24.0794 0 24.9999V28.3333C0 29.2538 0.746192 29.9999 1.66667 29.9999C2.58713 29.9999 3.33333 29.2538 3.33333 28.3333V24.9999C3.33333 24.0794 2.58713 23.3333 1.66667 23.3333Z" fill="url(#paint3_linear_1_1840)"/>
<path d="M36.6667 24.9999C36.6667 24.0794 37.4128 23.3333 38.3333 23.3333C39.2538 23.3333 40 24.0794 40 24.9999V28.3333C40 29.2538 39.2538 29.9999 38.3333 29.9999C37.4128 29.9999 36.6667 29.2538 36.6667 28.3333V24.9999Z" fill="url(#paint4_linear_1_1840)"/>
<defs>
<linearGradient id="paint0_linear_1_1840" x1="13.3333" y1="26.6667" x2="16.6667" y2="26.6667" gradientUnits="userSpaceOnUse">
<stop stop-color="#4757E6"/>
<stop offset="0.765" stop-color="#8E54E9"/>
</linearGradient>
<linearGradient id="paint1_linear_1_1840" x1="23.3333" y1="26.6667" x2="26.6667" y2="26.6667" gradientUnits="userSpaceOnUse">
<stop stop-color="#4757E6"/>
<stop offset="0.765" stop-color="#8E54E9"/>
</linearGradient>
<linearGradient id="paint2_linear_1_1840" x1="5" y1="20.0001" x2="35" y2="20.0001" gradientUnits="userSpaceOnUse">
<stop stop-color="#4757E6"/>
<stop offset="0.765" stop-color="#8E54E9"/>
</linearGradient>
<linearGradient id="paint3_linear_1_1840" x1="-2.48353e-08" y1="26.6666" x2="3.33333" y2="26.6666" gradientUnits="userSpaceOnUse">
<stop stop-color="#4757E6"/>
<stop offset="0.765" stop-color="#8E54E9"/>
</linearGradient>
<linearGradient id="paint4_linear_1_1840" x1="36.6667" y1="26.6666" x2="40" y2="26.6666" gradientUnits="userSpaceOnUse">
<stop stop-color="#4757E6"/>
<stop offset="0.765" stop-color="#8E54E9"/>
</linearGradient>
</defs>
</svg>
