<svg width="60" height="72" viewBox="0 0 60 72" fill="none" xmlns="http://www.w3.org/2000/svg">
<path d="M26.36 1.21004L7.11 8.42004C3.435 9.82004 0.425003 14.16 0.425003 18.115V46.465C0.425003 49.3 2.28 53.045 4.555 54.725L23.805 69.11C27.2 71.665 32.765 71.665 36.16 69.11L55.41 54.725C57.685 53.01 59.54 49.3 59.54 46.465V18.115C59.54 14.195 56.53 9.82004 52.855 8.45504L33.605 1.24504C31.645 0.475037 28.355 0.475037 26.36 1.21004Z" fill="url(#paint0_linear_2351_865)"/>
<path d="M25.31 43.8049C24.645 43.8049 23.98 43.5599 23.455 43.0349L17.82 37.3999C16.805 36.3849 16.805 34.7049 17.82 33.6899C18.835 32.6749 20.515 32.6749 21.53 33.6899L25.31 37.4699L38.505 24.2749C39.52 23.2599 41.2 23.2599 42.215 24.2749C43.23 25.2899 43.23 26.9699 42.215 27.9849L27.165 43.0349C26.64 43.5599 25.975 43.8049 25.31 43.8049Z" fill="white"/>
<defs>
<linearGradient id="paint0_linear_2351_865" x1="0.425003" y1="35.8447" x2="59.54" y2="35.8447" gradientUnits="userSpaceOnUse">
<stop stop-color="#4757E6"/>
<stop offset="0.484375" stop-color="#8E54E9"/>
<stop offset="1" stop-color="#FA0A9A"/>
</linearGradient>
</defs>
</svg>
