<svg width="25" height="24" viewBox="0 0 25 24" fill="none" xmlns="http://www.w3.org/2000/svg">
<g id="statistics-42 1">
<path id="Vector" d="M13 10.5536V3.44453C13.0003 3.23455 13.0463 3.02715 13.1348 2.83673C13.2233 2.64631 13.3522 2.47745 13.5125 2.34188C13.6729 2.20631 13.8608 2.10727 14.0633 2.05165C14.2658 1.99604 14.478 1.98518 14.6851 2.01983C16.7578 2.37029 18.67 3.3572 20.1564 4.84361C21.6428 6.33003 22.6297 8.24225 22.9802 10.3149C23.0148 10.522 23.004 10.7342 22.9483 10.9367C22.8927 11.1392 22.7937 11.3271 22.6581 11.4875C22.5225 11.6478 22.3537 11.7767 22.1633 11.8652C21.9729 11.9537 21.7654 11.9997 21.5555 12H14.4464C14.0628 12 13.6949 11.8476 13.4236 11.5764C13.1524 11.3051 13 10.9372 13 10.5536Z" fill="#C463FF"/>
<path id="Vector_2" d="M12.2328 12.933H18.6094C18.8108 12.9299 19.0104 12.9738 19.1939 13.0617C19.3774 13.1495 19.5404 13.2791 19.6713 13.4412C19.8022 13.6034 19.8977 13.7941 19.951 13.9997C20.0044 14.2054 20.0143 14.421 19.98 14.6312C19.688 16.2498 18.9851 17.7536 17.9468 18.981C16.9086 20.2085 15.5743 21.1133 14.0871 21.5983C12.5999 22.0832 11.0161 22.13 9.50572 21.7337C7.99532 21.3373 6.6154 20.5127 5.51414 19.3485C4.41288 18.1843 3.63189 16.7243 3.25502 15.1255C2.87816 13.5267 2.91965 11.8493 3.37506 10.2736C3.83047 8.69788 4.68258 7.28328 5.8399 6.18171C6.99722 5.08014 8.41602 4.33322 9.94394 4.02115C10.1424 3.98487 10.346 3.99536 10.5402 4.05187C10.7344 4.10837 10.9145 4.20952 11.0676 4.34809C11.2207 4.48667 11.3431 4.65928 11.426 4.85364C11.509 5.048 11.5505 5.25933 11.5475 5.47259V12.2073C11.5475 12.3997 11.6197 12.5843 11.7482 12.7204C11.8768 12.8565 12.0511 12.933 12.2328 12.933Z" fill="#8E54E9"/>
</g>
</svg>
