<svg width="64" height="70" viewBox="0 0 64 70" fill="none" xmlns="http://www.w3.org/2000/svg">
<path d="M53 59.0101H50.34C47.54 59.0101 44.88 60.0951 42.92 62.0551L36.935 67.9701C34.205 70.6651 29.76 70.6651 27.03 67.9701L21.045 62.0551C19.085 60.0951 16.39 59.0101 13.625 59.0101H11C5.19 59.0101 0.5 54.3552 0.5 48.6152V10.4301C0.5 4.69005 5.19 0.0351562 11 0.0351562H53C58.81 0.0351562 63.5 4.69005 63.5 10.4301V48.6152C63.5 54.3202 58.81 59.0101 53 59.0101Z" fill="url(#paint0_linear_2350_863)"/>
<path d="M26.33 43.7851H16.95C15.41 43.7851 13.975 43.05 13.065 41.79C12.19 40.6 11.98 39.1301 12.4 37.7301C13.625 33.9851 16.635 31.955 19.295 30.135C22.095 28.245 23.67 27.0551 23.67 25.0251C23.67 23.2051 22.2 21.7351 20.38 21.7351C18.56 21.7351 17.09 23.2051 17.09 25.0251C17.09 26.4601 15.9 27.6501 14.465 27.6501C13.03 27.6501 11.84 26.4601 11.84 25.0251C11.84 20.3351 15.655 16.4851 20.38 16.4851C25.105 16.4851 28.92 20.3001 28.92 25.0251C28.92 29.9601 25.21 32.48 22.235 34.51C20.38 35.77 18.63 36.9601 17.755 38.5351H26.295C27.73 38.5351 28.92 39.7251 28.92 41.1601C28.92 42.5951 27.765 43.7851 26.33 43.7851Z" fill="white"/>
<path d="M46.14 43.7851C44.705 43.7851 43.515 42.5951 43.515 41.1601V38.745H36.655C36.655 38.745 36.655 38.745 36.62 38.745C34.905 38.745 33.33 37.8351 32.455 36.3651C31.58 34.8601 31.58 33.0051 32.455 31.5351C34.835 27.4401 37.6 22.7849 40.12 18.7249C41.24 16.9399 43.375 16.1351 45.37 16.6951C47.365 17.2901 48.765 19.11 48.73 21.21V33.5301H49.5C50.935 33.5301 52.125 34.7201 52.125 36.1551C52.125 37.5901 50.935 38.7801 49.5 38.7801H48.765V41.1951C48.765 42.6301 47.61 43.7851 46.14 43.7851ZM43.515 23.2401C41.45 26.6001 39.315 30.205 37.39 33.495H43.515V23.2401Z" fill="white"/>
<defs>
<linearGradient id="paint0_linear_2350_863" x1="0.5" y1="35.0132" x2="63.5" y2="35.0132" gradientUnits="userSpaceOnUse">
<stop stop-color="#4757E6"/>
<stop offset="0.484375" stop-color="#8E54E9"/>
<stop offset="1" stop-color="#FA0A9A"/>
</linearGradient>
</defs>
</svg>
