<svg width="19" height="19" viewBox="0 0 19 19" fill="none" xmlns="http://www.w3.org/2000/svg">
<g id="Frame 120">
<g id="vuesax/bulk/send">
<g id="send">
<g id="send_2">
<path id="Vector" opacity="0.4" d="M16.2294 18.05H2.77103C2.45436 18.05 2.1377 17.8125 2.1377 17.4167C2.1377 17.0208 2.3752 16.7833 2.77103 16.7833H16.2294C16.546 16.7833 16.8627 17.0208 16.8627 17.4167C16.8627 17.8125 16.546 18.05 16.2294 18.05Z" fill="#4D57E6"/>
<g id="Group">
<g id="Group_2">
<path id="Vector_2" d="M15.0421 14.4083C14.8837 14.4083 14.7254 14.3292 14.6462 14.25L3.56289 3.16666C3.32539 2.92916 3.32539 2.61249 3.56289 2.37499C3.80039 2.13749 4.19622 2.13749 4.43372 2.37499L15.5171 13.4583C15.7546 13.6958 15.7546 14.0917 15.5171 14.3292C15.3587 14.4083 15.2004 14.4083 15.0421 14.4083Z" fill="#4D57E6"/>
</g>
<g id="Group_3">
<path id="Vector_3" d="M3.95853 11.4792C3.64186 11.4792 3.3252 11.2417 3.3252 10.8458V2.77083C3.3252 2.45416 3.5627 2.1375 3.95853 2.1375H12.1127C12.4294 2.1375 12.746 2.375 12.746 2.77083C12.746 3.16666 12.5085 3.40416 12.1127 3.40416H4.59186V10.925C4.59186 11.2417 4.2752 11.4792 3.95853 11.4792Z" fill="#4D57E6"/>
</g>
</g>
</g>
</g>
</g>
</g>
</svg>
