<svg width="19" height="19" viewBox="0 0 19 19" fill="none" xmlns="http://www.w3.org/2000/svg">
<g id="Frame 105">
<g id="vuesax/bulk/send">
<g id="send">
<g id="send_2">
<path id="Vector" opacity="0.4" d="M16.2294 18.05H2.77103C2.45436 18.05 2.1377 17.8125 2.1377 17.4167C2.1377 17.0208 2.3752 16.7833 2.77103 16.7833H16.2294C16.546 16.7833 16.8627 17.0208 16.8627 17.4167C16.8627 17.8125 16.546 18.05 16.2294 18.05Z" fill="#4D57E6"/>
<g id="Group">
<g id="Group_2">
<path id="Vector_2" d="M15.0421 14.4084C14.8837 14.4084 14.7254 14.3292 14.6462 14.25L3.56289 3.16669C3.32539 2.92919 3.32539 2.61252 3.56289 2.37502C3.80039 2.13752 4.19622 2.13752 4.43372 2.37502L15.5171 13.4584C15.7546 13.6959 15.7546 14.0917 15.5171 14.3292C15.3587 14.4084 15.2004 14.4084 15.0421 14.4084Z" fill="#4D57E6"/>
</g>
<g id="Group_3">
<path id="Vector_3" d="M3.95853 11.4792C3.64186 11.4792 3.3252 11.2417 3.3252 10.8458V2.77085C3.3252 2.45418 3.5627 2.13751 3.95853 2.13751H12.1127C12.4294 2.13751 12.746 2.37501 12.746 2.77085C12.746 3.16668 12.5085 3.40418 12.1127 3.40418H4.59186V10.925C4.59186 11.2417 4.2752 11.4792 3.95853 11.4792Z" fill="#4D57E6"/>
</g>
</g>
</g>
</g>
</g>
</g>
</svg>
