<svg width="81" height="81" viewBox="0 0 81 81" fill="none" xmlns="http://www.w3.org/2000/svg">
<g id="Frame 105">
<g id="vuesax/bulk/send">
<g id="send">
<g id="send_2">
<path id="Vector" d="M69.1873 76.95H11.8123C10.4623 76.95 9.1123 75.9375 9.1123 74.25C9.1123 72.5625 10.1248 71.55 11.8123 71.55H69.1873C70.5373 71.55 71.8873 72.5625 71.8873 74.25C71.8873 75.9375 70.5373 76.95 69.1873 76.95Z" fill="url(#paint0_linear_161_962)"/>
<g id="Group">
<g id="Group_2">
<path id="Vector_2" d="M64.1246 61.425C63.4496 61.425 62.7746 61.0875 62.4371 60.75L15.1871 13.5C14.1746 12.4875 14.1746 11.1375 15.1871 10.125C16.1996 9.11251 17.8871 9.11251 18.8996 10.125L66.1496 57.375C67.1621 58.3875 67.1621 60.075 66.1496 61.0875C65.4746 61.425 64.7996 61.425 64.1246 61.425Z" fill="url(#paint1_linear_161_962)"/>
</g>
<g id="Group_3">
<path id="Vector_3" d="M16.8748 48.9375C15.5248 48.9375 14.1748 47.925 14.1748 46.2375V11.8125C14.1748 10.4625 15.1873 9.1125 16.8748 9.1125H51.6373C52.9873 9.1125 54.3373 10.125 54.3373 11.8125C54.3373 13.5 53.3248 14.5125 51.6373 14.5125H19.5748V46.575C19.5748 47.925 18.2248 48.9375 16.8748 48.9375Z" fill="url(#paint2_linear_161_962)"/>
</g>
</g>
</g>
</g>
</g>
</g>
<defs>
<linearGradient id="paint0_linear_161_962" x1="9.1123" y1="74.25" x2="71.8873" y2="74.25" gradientUnits="userSpaceOnUse">
<stop stop-color="#4757E6"/>
<stop offset="0.484375" stop-color="#8E54E9"/>
<stop offset="1" stop-color="#FA0A9A"/>
</linearGradient>
<linearGradient id="paint1_linear_161_962" x1="14.4277" y1="35.3953" x2="66.909" y2="35.3953" gradientUnits="userSpaceOnUse">
<stop stop-color="#4757E6"/>
<stop offset="0.484375" stop-color="#8E54E9"/>
<stop offset="1" stop-color="#FA0A9A"/>
</linearGradient>
<linearGradient id="paint2_linear_161_962" x1="14.1748" y1="29.025" x2="54.3373" y2="29.025" gradientUnits="userSpaceOnUse">
<stop stop-color="#4757E6"/>
<stop offset="0.484375" stop-color="#8E54E9"/>
<stop offset="1" stop-color="#FA0A9A"/>
</linearGradient>
</defs>
</svg>
