<svg width="7" height="13" viewBox="0 0 7 13" fill="none" xmlns="http://www.w3.org/2000/svg">
<path d="M5.09332 2.02078H6.7017C6.84967 2.02078 6.96976 1.90762 6.96976 1.76819V0.252598C6.96976 0.113164 6.84967 0 6.7017 0H5.09332C3.46779 0 2.14463 1.24632 2.14463 2.77858V4.54676H0.268185C0.120214 4.54676 0.00012207 4.65993 0.00012207 4.79936V6.31495C0.00012207 6.45438 0.120214 6.56755 0.268185 6.56755H2.14463V11.8721C2.14463 12.0115 2.26472 12.1247 2.41269 12.1247H4.02107C4.16904 12.1247 4.28913 12.0115 4.28913 11.8721V6.56755H6.16557C6.28084 6.56755 6.38324 6.49783 6.42023 6.39477L6.95636 4.87918C6.9837 4.80239 6.96976 4.71752 6.91937 4.65134C6.86843 4.58566 6.78801 4.54676 6.7017 4.54676H4.28913V2.77858C4.28913 2.36078 4.64994 2.02078 5.09332 2.02078Z" fill="white"/>
</svg>
