<svg width="12" height="12" viewBox="0 0 12 12" fill="none" xmlns="http://www.w3.org/2000/svg">
<path d="M1.48367 2.9671C2.30301 2.9671 2.96722 2.30289 2.96722 1.48355C2.96722 0.664208 2.30301 0 1.48367 0C0.66433 0 0.00012207 0.664208 0.00012207 1.48355C0.00012207 2.30289 0.66433 2.9671 1.48367 2.9671Z" fill="white"/>
<path d="M2.71984 3.95801H0.247258C0.110772 3.95801 0 4.06878 0 4.20527V11.623C0 11.7595 0.110772 11.8703 0.247258 11.8703H2.71984C2.85633 11.8703 2.9671 11.7595 2.9671 11.623V4.20527C2.9671 4.06878 2.85633 3.95801 2.71984 3.95801Z" fill="white"/>
<path d="M10.0882 3.54689C9.03138 3.1849 7.70954 3.50288 6.91683 4.07306C6.88963 3.96673 6.79271 3.88761 6.67748 3.88761H4.2049C4.06841 3.88761 3.95764 3.99838 3.95764 4.13487V11.5526C3.95764 11.6891 4.06841 11.7999 4.2049 11.7999H6.67748C6.81397 11.7999 6.92474 11.6891 6.92474 11.5526V6.22173C7.32431 5.87755 7.8391 5.76776 8.26043 5.94678C8.6689 6.11936 8.90281 6.54069 8.90281 7.10197V11.5526C8.90281 11.6891 9.01358 11.7999 9.15007 11.7999H11.6227C11.7591 11.7999 11.8699 11.6891 11.8699 11.5526V6.60399C11.8417 4.57202 10.8858 3.81986 10.0882 3.54689Z" fill="white"/>
</svg>
