<svg width="70" height="70" viewBox="0 0 70 70" fill="none" xmlns="http://www.w3.org/2000/svg">
<path d="M49.665 0H20.335C7.595 0 0 7.595 0 20.335V49.63C0 62.405 7.595 70 20.335 70H49.63C62.37 70 69.965 62.405 69.965 49.665V20.335C70 7.595 62.405 0 49.665 0Z" fill="url(#paint0_linear_2351_864)"/>
<path d="M47.53 58.6399C46.095 58.6399 44.905 57.5512 44.905 56.2383V43.7502C44.905 42.4373 46.095 41.3486 47.53 41.3486C48.965 41.3486 50.155 42.4373 50.155 43.7502V56.2383C50.155 57.5512 48.965 58.6399 47.53 58.6399Z" fill="white"/>
<path d="M47.53 23.2572C46.095 23.2572 44.905 22.1685 44.905 20.8556V14.6115C44.905 13.2987 46.095 12.21 47.53 12.21C48.965 12.21 50.155 13.2987 50.155 14.6115V20.8556C50.155 22.1685 48.965 23.2572 47.53 23.2572Z" fill="white"/>
<path d="M22.47 58.64C21.035 58.64 19.845 57.5513 19.845 56.2384V49.9943C19.845 48.6815 21.035 47.5928 22.47 47.5928C23.905 47.5928 25.095 48.6815 25.095 49.9943V56.2384C25.095 57.5513 23.94 58.64 22.47 58.64Z" fill="white"/>
<path d="M22.47 29.5012C21.035 29.5012 19.845 28.4125 19.845 27.0997V14.6115C19.845 13.2987 21.035 12.21 22.47 12.21C23.905 12.21 25.095 13.2987 25.095 14.6115V27.0997C25.095 28.4125 23.94 29.5012 22.47 29.5012Z" fill="white"/>
<path d="M47.53 20.4712C42.28 20.4712 37.975 24.3777 37.975 29.1809C37.975 33.984 42.245 37.9226 47.53 37.9226C52.78 37.9226 57.05 34.016 57.05 29.1809C57.05 24.3457 52.78 20.4712 47.53 20.4712Z" fill="white"/>
<path d="M22.47 32.9595C17.22 32.9595 12.95 36.866 12.95 41.7012C12.95 46.5363 17.22 50.4109 22.47 50.4109C27.72 50.4109 32.025 46.5043 32.025 41.7012C32.025 36.898 27.755 32.9595 22.47 32.9595Z" fill="white"/>
<defs>
<linearGradient id="paint0_linear_2351_864" x1="-5.21281e-07" y1="35" x2="69.9651" y2="35" gradientUnits="userSpaceOnUse">
<stop stop-color="#4757E6"/>
<stop offset="0.484375" stop-color="#8E54E9"/>
<stop offset="1" stop-color="#FA0A9A"/>
</linearGradient>
</defs>
</svg>
