<svg width="292" height="292" viewBox="0 0 292 292" fill="none" xmlns="http://www.w3.org/2000/svg">
<g clipPath="url(#clip0_139_2966)">
<path opacity="0.4" d="M336 124C336 157.227 326.147 189.708 307.687 217.336C289.227 244.963 262.989 266.496 232.291 279.212C201.593 291.927 167.814 295.254 135.225 288.772C102.636 282.29 72.7014 266.289 49.2061 242.794C25.7109 219.299 9.71047 189.364 3.22815 156.775C-3.25417 124.186 0.0727911 90.4072 12.7883 59.7092C25.5038 29.0112 47.0368 2.77318 74.6643 -15.6869C102.292 -34.147 134.773 -44 168 -44C212.556 -44 255.288 -26.3001 286.794 5.20606C318.3 36.7122 336 79.4436 336 124Z" fill="url(#paint0_linear_139_2966)"/>
<path fill-rule="evenodd" clip-rule="evenodd" d="M119.402 32.7149L158.012 43.0546L166.641 10.8902L185.945 16.1287L177.652 46.9644L193.399 51.1949L201.707 20.0233L221.348 25.2771L212.887 56.6167C212.887 56.6167 244.959 63.7186 252.504 89.8044C260.049 115.89 235.918 129.59 228.465 130.109C228.465 130.109 256.567 145.519 246.914 175.836C237.262 206.152 207.633 211.574 176.461 204.625L168 237.125L148.359 231.871L156.988 199.875L141.41 195.629L132.781 227.855L113.293 222.616L121.937 190.543L82.3047 179.852L92.2931 157.676C92.2931 157.676 103.473 160.731 107.703 161.739C111.934 162.747 114.652 158.348 115.844 153.95C117.035 149.551 134.98 76.6546 136.676 70.6524C138.371 64.6502 137.684 59.9615 130.567 58.1135C123.449 56.2655 113.767 53.3789 113.767 53.3789L119.402 32.7149ZM158.348 129.254L147.657 171.758C147.657 171.758 200.668 190.895 207.449 163.969C214.231 137.043 158.348 129.254 158.348 129.254ZM163.265 109.094L173.758 70.1484C173.758 70.1484 219.148 78.2735 213.559 99.9455C207.969 121.617 181.211 113.309 163.265 109.094Z" fill="white"/>
</g>
<defs>
<linearGradient id="paint0_linear_139_2966" x1="-2.5034e-06" y1="124" x2="336" y2="124" gradientUnits="userSpaceOnUse">
<stop stop-color="#4757E6"/>
<stop offset="0.484375" stop-color="#8E54E9"/>
<stop offset="1" stop-color="#FA0A9A"/>
</linearGradient>
<clipPath id="clip0_139_2966">
<rect width="336" height="336" fill="white" transform="translate(0 -44)"/>
</clipPath>
</defs>
</svg>
