<svg width="68" height="68" viewBox="0 0 68 68" fill="none" xmlns="http://www.w3.org/2000/svg">
<g id="btc" clipPath="url(#clip0_282_871)">
<path id="Vector" d="M68 34C68 40.7246 66.006 47.2981 62.27 52.8894C58.534 58.4807 53.2239 62.8385 47.0113 65.4119C40.7986 67.9853 33.9623 68.6586 27.3669 67.3467C20.7716 66.0348 14.7134 62.7966 9.95838 58.0416C5.2034 53.2866 1.96521 47.2284 0.653316 40.6331C-0.658582 34.0377 0.0147315 27.2015 2.58811 20.9888C5.16149 14.7761 9.51936 9.466 15.1106 5.73003C20.7019 1.99407 27.2755 0 34 0C43.0174 0 51.6654 3.58213 58.0416 9.95837C64.4179 16.3346 68 24.9826 68 34Z" fill="#F7931A"/>
<path id="Vector_2" fill-rule="evenodd" clip-rule="evenodd" d="M24.1646 15.5256L31.9784 17.6182L33.7247 11.1087L37.6316 12.1689L35.9533 18.4094L39.14 19.2656L40.8215 12.9571L44.7964 14.0203L43.084 20.3629C43.084 20.3629 49.5749 21.8002 51.1018 27.0794C52.6287 32.3587 47.7451 35.1312 46.2367 35.2363C46.2367 35.2363 51.924 38.3551 49.9706 44.4905C48.0171 50.626 42.0207 51.7232 35.7122 50.3169L33.9998 56.8943L30.0249 55.8311L31.7713 49.3556L28.6186 48.4963L26.8722 55.0182L22.9282 53.958L24.6776 47.4671L16.6567 45.3034L18.6782 40.8154C18.6782 40.8154 20.9407 41.4336 21.7969 41.6376C22.6531 41.8416 23.2033 40.9514 23.4444 40.0612C23.6855 39.1711 27.3173 24.4182 27.6604 23.2034C28.0035 21.9887 27.8644 21.0398 26.424 20.6658C24.9836 20.2918 23.024 19.7076 23.024 19.7076L24.1646 15.5256ZM32.0464 35.0632L29.8827 43.6652C29.8827 43.6652 40.6113 47.5382 41.9836 42.0889C43.356 36.6396 32.0464 35.0632 32.0464 35.0632ZM33.0416 30.9832L35.1651 23.1014C35.1651 23.1014 44.3513 24.7458 43.22 29.1318C42.0887 33.5178 36.6735 31.8363 33.0416 30.9832Z" fill="white"/>
</g>
<defs>
<clipPath id="clip0_282_871">
<rect width="68" height="68" fill="white"/>
</clipPath>
</defs>
</svg>
