<svg width="51" height="51" viewBox="0 0 51 51" fill="none" xmlns="http://www.w3.org/2000/svg">
<g id="dash" clipPath="url(#clip0_284_2143)">
<g id="Group">
<path id="Vector" d="M25.5 51C39.5833 51 51 39.5833 51 25.5C51 11.4167 39.5833 0 25.5 0C11.4167 0 0 11.4167 0 25.5C0 39.5833 11.4167 51 25.5 51Z" fill="#008CE7"/>
<g id="Group_2">
<path id="Vector_2" d="M30.4185 12.7562H18.8224L17.8629 18.1224L28.3211 18.1383C33.4705 18.1383 34.9989 20.0078 34.9495 23.1108C34.9272 24.7014 34.2339 27.3916 33.9407 28.2586C33.1486 30.5855 31.5166 33.2343 25.3998 33.2263L15.2348 33.22L14.2754 38.5925H25.8412C29.9196 38.5925 31.6568 38.116 33.4912 37.2697C37.5617 35.3923 39.9858 31.3712 40.9595 26.123C42.4035 18.3136 40.6025 12.7562 30.4169 12.7562H30.4185Z" fill="white"/>
<path id="Vector_3" d="M25.1924 25.178C25.5701 23.6082 25.6896 22.9786 25.6896 22.9786H13.8226C10.7881 22.9786 10.3546 24.9549 10.0661 26.1502C9.68838 27.7137 9.56885 28.3512 9.56885 28.3512H21.4375C24.4704 28.3512 24.9039 26.3749 25.1924 25.178Z" fill="white"/>
</g>
</g>
</g>
<defs>
<clipPath id="clip0_284_2143">
<rect width="51" height="51" fill="white"/>
</clipPath>
</defs>
</svg>
