<svg width="51" height="51" viewBox="0 0 51 51" fill="none" xmlns="http://www.w3.org/2000/svg">
<g id="doge" clipPath="url(#clip0_284_2151)">
<g id="Group">
<path id="Vector" d="M25.5 51C39.5833 51 51 39.5833 51 25.5C51 11.4167 39.5833 0 25.5 0C11.4167 0 0 11.4167 0 25.5C0 39.5833 11.4167 51 25.5 51Z" fill="#C3A634"/>
<path id="Vector_2" fill-rule="evenodd" clip-rule="evenodd" d="M21.114 23.2847H27.9894V26.928H21.114V34.6067H25.4506C27.1671 34.6067 28.5712 34.3756 29.6645 33.9102C30.7578 33.4464 31.6152 32.8042 32.2384 31.9818C32.8757 31.1266 33.3096 30.1373 33.507 29.0891C33.7373 27.9068 33.8494 26.7045 33.8417 25.5C33.8494 24.2955 33.7373 23.0932 33.507 21.9109C33.3098 20.8627 32.8759 19.8733 32.2384 19.0182C31.6152 18.1958 30.7562 17.5536 29.6645 17.0898C28.5712 16.6244 27.1671 16.3933 25.4506 16.3933H21.114V23.2863V23.2847ZM16.7057 26.928H14.3438V23.2863H16.7057V12.75H27.1432C29.0716 12.75 30.7402 13.0847 32.1507 13.7493C33.5612 14.4171 34.7119 15.3271 35.606 16.4826C36.4985 17.6364 37.1631 18.9879 37.5982 20.5355C38.0332 22.083 38.25 23.7389 38.25 25.5C38.2609 27.177 38.0411 28.8475 37.5966 30.4645C37.1631 32.0105 36.4985 33.3636 35.6044 34.5174C34.7119 35.6729 33.5612 36.5829 32.1507 37.2507C30.7402 37.9169 29.07 38.25 27.1432 38.25H16.7057V26.928Z" fill="white"/>
</g>
</g>
<defs>
<clipPath id="clip0_284_2151">
<rect width="51" height="51" fill="white"/>
</clipPath>
</defs>
</svg>
