<svg width="51" height="51" viewBox="0 0 51 51" fill="none" xmlns="http://www.w3.org/2000/svg">
<g id="eth" clipPath="url(#clip0_284_2125)">
<g id="Group">
<path id="Vector" d="M25.5 51C39.5833 51 51 39.5833 51 25.5C51 11.4167 39.5833 0 25.5 0C11.4167 0 0 11.4167 0 25.5C0 39.5833 11.4167 51 25.5 51Z" fill="#627EEA"/>
<g id="Group_2">
<path id="Vector_2" d="M26.2939 6.375V20.5116L38.2423 25.8506L26.2939 6.375Z" fill="white" fill-opacity="0.602"/>
<path id="Vector_3" d="M26.2937 6.375L14.3438 25.8506L26.2937 20.5116V6.375Z" fill="white"/>
<path id="Vector_4" d="M26.2939 35.0118V44.6173L38.2503 28.0758L26.2939 35.0118Z" fill="white" fill-opacity="0.602"/>
<path id="Vector_5" d="M26.2937 44.6173V35.0102L14.3438 28.0758L26.2937 44.6173Z" fill="white"/>
<path id="Vector_6" d="M26.2939 32.7884L38.2423 25.8508L26.2939 20.5149V32.7884Z" fill="white" fill-opacity="0.2"/>
<path id="Vector_7" d="M14.3438 25.8508L26.2937 32.7884V20.5149L14.3438 25.8508Z" fill="white" fill-opacity="0.602"/>
</g>
</g>
</g>
<defs>
<clipPath id="clip0_284_2125">
<rect width="51" height="51" fill="white"/>
</clipPath>
</defs>
</svg>
