<svg width="51" height="51" viewBox="0 0 51 51" fill="none" xmlns="http://www.w3.org/2000/svg">
<g id="ltc" clipPath="url(#clip0_284_2137)">
<g id="Group">
<path id="Vector" d="M25.4998 0C18.7617 0.0196555 12.3068 2.71268 7.55266 7.48768C2.79851 12.2627 0.133754 18.7293 0.143582 25.4674C0.15341 32.2056 2.83702 38.6644 7.60508 43.4255C12.3731 48.1866 18.8359 50.8608 25.574 50.8608C32.3122 50.8608 38.7749 48.1866 43.5429 43.4255C48.311 38.6644 50.9946 32.2056 51.0044 25.4674C51.0143 18.7293 48.3495 12.2627 43.5954 7.48768C38.8412 2.71268 32.3863 0.0196555 25.6482 0L25.4998 0Z" fill="#345D9D"/>
</g>
<path id="Vector_2" d="M25.9637 26.0703L23.7174 33.6136H35.6699C35.7489 33.6096 35.8279 33.6223 35.9017 33.6507C35.9755 33.6784 36.0432 33.7201 36.1011 33.7736C36.1586 33.8284 36.205 33.8937 36.2379 33.966C36.2727 34.0384 36.2917 34.1175 36.2935 34.1978V34.3949L35.2527 37.9811C35.2081 38.1511 35.1056 38.3003 34.9629 38.403C34.8215 38.5067 34.6489 38.5591 34.4737 38.5514H16.1833L19.2479 28.1195L15.8193 29.1581L16.5982 26.768L20.0268 25.7272L24.341 11.0531C24.3877 10.884 24.4907 10.736 24.6331 10.6335C24.7738 10.5298 24.9451 10.4759 25.1199 10.4805H29.7562C29.8353 10.4785 29.9141 10.4918 29.9881 10.5199C30.0628 10.547 30.1314 10.5888 30.1897 10.6428C30.2483 10.6967 30.2948 10.7622 30.3265 10.8352C30.3598 10.9081 30.3779 10.9869 30.3798 11.067V11.2664L26.7426 23.6339L30.1735 22.593L29.441 25.0827L25.9637 26.0703Z" fill="white"/>
</g>
<defs>
<clipPath id="clip0_284_2137">
<rect width="51" height="51" fill="white"/>
</clipPath>
</defs>
</svg>
