<svg width="51" height="51" viewBox="0 0 51 51" fill="none" xmlns="http://www.w3.org/2000/svg">
<g id="trx" clipPath="url(#clip0_284_2157)">
<g id="Group">
<path id="Vector" d="M25.5 51C39.5833 51 51 39.5833 51 25.5C51 11.4167 39.5833 0 25.5 0C11.4167 0 0 11.4167 0 25.5C0 39.5833 11.4167 51 25.5 51Z" fill="#EF0027"/>
<path id="Vector_2" d="M34.9541 15.7987L11.9531 11.5657L24.0577 42.0254L40.9243 21.4756L34.9541 15.7987ZM34.5844 17.6634L38.1034 21.0086L28.4803 22.7506L34.5844 17.6634ZM26.3893 22.4016L16.2467 13.9898L32.8249 17.0402L26.3893 22.4016ZM25.6673 23.8901L24.013 37.5645L15.096 15.1197L25.6673 23.8885V23.8901ZM27.1973 24.6153L37.8547 22.6869L25.6307 37.5773L27.1973 24.6153Z" fill="white"/>
</g>
</g>
<defs>
<clipPath id="clip0_284_2157">
<rect width="51" height="51" fill="white"/>
</clipPath>
</defs>
</svg>
