<svg width="48" height="48" viewBox="0 0 48 48" fill="none" xmlns="http://www.w3.org/2000/svg">
<g id="btc" clipPath="url(#clip0_184_2178)">
<g id="Group">
<path id="Vector" d="M24 48C37.2548 48 48 37.2548 48 24C48 10.7452 37.2548 0 24 0C10.7452 0 0 10.7452 0 24C0 37.2548 10.7452 48 24 48Z" fill="#26A17B"/>
<path id="Vector_2" fill-rule="evenodd" clip-rule="evenodd" d="M26.8832 26.0749V26.0719C26.7182 26.0839 25.8677 26.1349 23.9702 26.1349C22.4552 26.1349 21.3887 26.0899 21.0137 26.0719V26.0764C15.1817 25.8199 10.8287 24.8044 10.8287 23.5894C10.8287 22.3759 15.1817 21.3604 21.0137 21.0994V25.0654C21.3947 25.0924 22.4867 25.1569 23.9957 25.1569C25.8062 25.1569 26.7137 25.0819 26.8832 25.0669V21.1024C32.7032 21.3619 37.0457 22.3774 37.0457 23.5894C37.0457 24.8044 32.7032 25.8169 26.8832 26.0749ZM26.8832 20.6899V17.1409H35.0042V11.7289H12.8927V17.1409H21.0137V20.6884C14.4137 20.9914 9.4502 22.2994 9.4502 23.8654C9.4502 25.4314 14.4137 26.7379 21.0137 27.0424V38.4154H26.8832V27.0394C33.4727 26.7364 38.4242 25.4299 38.4242 23.8654C38.4242 22.3009 33.4727 20.9944 26.8832 20.6899Z" fill="white"/>
</g>
</g>
<defs>
<clipPath id="clip0_184_2178">
<rect width="48" height="48" fill="white"/>
</clipPath>
</defs>
</svg>
