<svg width="51" height="51" viewBox="0 0 51 51" fill="none" xmlns="http://www.w3.org/2000/svg">
<g id="xmr" clipPath="url(#clip0_284_2119)">
<g id="Group">
<path id="Vector" d="M25.5 51C39.5833 51 51 39.5833 51 25.5C51 11.4167 39.5833 0 25.5 0C11.4167 0 0 11.4167 0 25.5C0 39.5833 11.4167 51 25.5 51Z" fill="#FF6600"/>
<path id="Vector_2" d="M25.4523 8.34375C34.9909 8.34375 42.7046 16.0575 42.7046 25.5945C42.6982 27.4532 42.398 29.2992 41.8153 31.0642H36.6739V16.5707L25.4539 27.7907L14.2339 16.5707V31.0642H9.09084C8.50867 29.2991 8.20907 27.4531 8.20312 25.5945C8.20312 16.0575 15.9169 8.34375 25.4539 8.34375H25.4523ZM22.8832 30.3136L25.5001 32.8875L28.0708 30.3152L32.9333 25.4064V34.5227H40.1801C38.643 37.0507 36.4805 39.1402 33.9012 40.5895C31.3218 42.0389 28.4125 42.7993 25.4539 42.7974C19.2351 42.7974 13.7653 39.4792 10.7276 34.5227H17.9728V25.4064L22.8816 30.3152L22.8832 30.3136Z" fill="white"/>
</g>
</g>
<defs>
<clipPath id="clip0_284_2119">
<rect width="51" height="51" fill="white"/>
</clipPath>
</defs>
</svg>
